<?xml version="1.0" encoding="utf-8"?>
<!-- Generator: Adobe Illustrator 23.0.3, SVG Export Plug-In . SVG Version: 6.00 Build 0)  -->
<svg version="1.1" id="_x31_0" xmlns="http://www.w3.org/2000/svg" xmlns:xlink="http://www.w3.org/1999/xlink" x="0px" y="0px"
	 viewBox="0 0 512 512" style="enable-background:new 0 0 512 512;" xml:space="preserve">
<style type="text/css">
	.st0{fill:#20526B;}
</style>
<g>
	<path class="st0" d="M239.6,375.1c-0.1-0.5-0.3-1-0.4-1.5c75.9-6.1,128.7-31.1,163.9-47.7l1.8-0.8c5.6-2.6,10.8-5.1,15.7-7.3
		c17.8,15.4,50.1,38.1,62,39.7c10.6,1.3,21.1-3.7,26.3-13.2c4.6-8.4,4.2-18.2-1-26.2l-0.4-0.7c-5.7-8.7-15.6-30.6-20-42
		c4.3-11.3,14.4-33.3,20.3-42.6c5.6-8.6,5.7-19.3,0.2-27.9c-5.5-8.6-15.2-13.1-25.4-11.6c-13,1.8-47.6,28.5-64.3,43.1
		c-9.7-3.8-21.9-8.8-37.1-15.1l-9-3.7l-13.6-5.9l0.1-0.1c-2.2-3.8-4.7-7.3-7.4-10.7c-2.4-3-5.2-6.1-8.5-9.4
		c-3.6-3.4-6.4-5.9-9.1-7.9c-3.1-2.5-6.3-4.8-9.7-7.2c-3.3-2.2-6.9-4.4-10.2-6.5c-1.1-0.6-2.2-1.2-3.2-1.8c-2.1-1.2-4.1-2.4-6.7-3.6
		l-1.4-0.7c-3-1.5-6-3.1-9-4.3c-14-6.4-28.6-11.5-43.2-15.2c-8-2.2-16.1-3.8-22.3-5c-3.7-0.7-7.4-1.2-11.2-1.8l-2.2-0.3l-9.6-30.4
		l-0.2-0.9c-0.7-2.1-1.9-4-3.6-5.6c-5.4-5.1-14-4.9-19.1,0.4L95,191c-22.7,10.1-46.7,24.5-73.4,44L7.4,245.3
		c-2.5,1.8-4.1,4.6-4.4,7.6c-0.3,3.1,0.8,6.1,2.8,8.3l6.9,7.4l0.9,1l-9.1,6.2c-2.8,1.9-4.5,4.9-4.7,8.3c-0.2,3.4,1.2,6.6,3.8,8.7
		l15.7,13.2c35.6,29.9,70.1,55.5,130,64.9c1.1,1,2.3,2,3.4,3c7.2,6.2,14.6,12,22,17.2c3.8,2.8,7.8,5.3,12.1,8l2.6,1.5
		c3.3,1.9,6.6,3.8,10.2,5.4l1.1,0.6c1.9,1,3.9,2,5.8,2.6l1.8,0.7c1.8,0.8,3.6,1.5,5.6,2.1l7.9,2.3c2.6,0.4,5.2,0.8,8.3,1.2
		c0.6,0.1,1.1,0.1,1.7,0.1c1.3,0,2.5-0.2,3.7-0.5c7.6-2,12.2-9.8,10.1-17.8C243.7,388.8,241.7,381.7,239.6,375.1z M200.9,159.6
		c0.5,0.2,1,0.5,1.6,0.5h0.4c3.1,0.4,6.7,0.9,10.1,1.4c3.5,0.6,6.9,1.2,10.3,1.9c0.6,0.1,1.2,0.3,1.9,0.4c0.1,0,0.2,0.1,0.3,0.1
		l-14.9,13.7c-6-0.7-9.6-0.9-10.3-0.9l-0.7-0.1h-7.1c-2.2,0-4.5-0.1-6.8-0.1c-1.1,0-2.3,0-3.5,0c-0.8,0-1.5,0-2.4-0.1l19.1-17.6
		c0.4,0.3,1,0.3,1.5,0.5C200.4,159.4,200.6,159.5,200.9,159.6z M423.3,266.8l10.1-9.8c15.6-14,35.5-28.5,46.8-35.1
		c2.5-1.4,4.6-2.5,6.1-3.1l-0.4,0.7c-3.2,4.9-7.1,12.4-10.8,20.2l-23.8,19.4c-0.5,0.4-0.7,1.2-0.3,1.8c0.4,0.6,1.3,0.8,1.9,0.4
		l9.5-6.1l7.8-4.8c-3.2,7.1-5.8,13.6-7.3,17.6l-2.7,7.4l2.7,7.5c1.2,3.3,3.3,8.4,5.8,14c0.5,1.3,1.1,2.6,1.6,3.9L453,289.8
		c-0.6-0.4-1.4-0.3-1.8,0.3c-0.5,0.6-0.4,1.5,0.2,2l24,19.6c3.7,7.6,7.5,15,10.6,19.8l0.3,0.5l0.1,0.3c-7.7-2.9-33-19.4-50.8-35.1
		l-10.4-9.1l-12.6,5.5c-6.1,2.6-12.6,5.7-19.5,8.9l-0.9,0.4c-36.2,17.1-89.3,42.2-167.4,46.1c-6.8,0.4-13.9,0.6-21.2,0.6h-1.6
		c-17.7-0.1-33.3-1.2-47.4-3.5c-3.5-0.5-7-1.1-10.3-1.7c-47.2-9.4-76.1-30.7-108.4-57.7l-0.7-0.6l0,0l12-8.1c3-2,3.4-6.2,1-8.8
		l-7.4-7.9l-1.5-1.7c2.6-1.5,6.2-3.5,10.7-6.1c3.6-1.9,7.8-4.2,12.6-6.6c2.7,11.3,12.8,19.7,24.9,19.7c14.1,0,25.6-11.5,25.6-25.7
		c0-4.6-1.3-9-3.4-12.7c-0.1-0.2-0.2-0.4-0.3-0.6c8.9-2.9,19.2-5.7,27.9-6.4c11.1-0.1,24.3,10.6,36.9,11.2c7.4,0,23.8,0.1,42.3,0.5
		c6.9-3.1,14-6,21.1-8.8c4.1-1.7,8.3-3,12.3-4.3l2.9-0.9l2.9-0.8c4.1-1.2,8.3-2.4,12.6-3.4l1.6-0.4c0.9-0.2,1.7-0.4,2.6-0.6
		c1.3-0.3,2.7-0.6,4.1-0.8c0.8-0.1,1.7-0.2,2.5-0.4c0.5-0.1,1.1-0.2,1.7-0.3c1.4-0.3,2.7-0.5,4.2-0.6l8.3-0.7h0.8l8.7,0.4
		c7.8,0.3,14.3,5.6,16.3,12.7c0.6,1.8,0.8,3.7,0.7,5.7v0.3c-0.1,2.9-1,5.7-2.4,8.2l-0.3,0.4c-0.7,1.1-1.3,2.2-2,3.2
		c-0.2,0.2-0.3,0.5-0.5,0.7c0,0,0,0,0.1,0c0,0-0.1,0.1-0.1,0.1C359.1,252,423.3,266.8,423.3,266.8z M168.5,176.9
		c-9.8,0.5-20.3,1.8-31.5,4.3c-1.1,0.2-2.3,0.4-3.4,0.6l53.2-53.3L194,153c0,0.1,0.1,0.2,0.1,0.3L168.5,176.9z M105.8,240.8
		c0,10.2-8.3,18.5-18.4,18.5c-9.2,0-16.9-6.8-18.2-15.8c-0.1-0.9-0.2-1.8-0.2-2.7c0-2.9,0.7-5.7,1.9-8.1c3-6.1,9.3-10.3,16.5-10.3
		c0.5,0,0.9,0,1.4,0.1c5.5,0.4,10.4,3.2,13.4,7.5C104.5,233,105.8,236.7,105.8,240.8z M310.2,198c-16-5-31.7-8.8-46.1-11.8
		c-2.6-0.6-5.3-1.2-7.9-1.7l9.8-9c5.7,2,11.2,4.3,16.7,6.8c3.2,1.4,6.2,3,9.3,4.5c2.5,1.2,6.1,3.5,9.1,5.1c2.9,1.9,5.5,3.5,8.4,5.4
		c0.2,0.1,0.4,0.2,0.5,0.4L310.2,198z M258.2,172.8l-11,10.1c-1.1-0.2-2.2-0.4-3.2-0.5c-0.2-0.1-0.5-0.1-0.8-0.1
		c-7.5-1.3-14.2-2.3-20-3.1c-1.1-0.2-2.3-0.4-3.3-0.6l13.9-12.8c3.2,0.7,6.5,1.6,9.6,2.4c4.5,1.2,8.9,2.6,13.3,4.1
		C257.3,172.5,257.8,172.6,258.2,172.8z M216.2,385.8c-1.8-0.6-3.7-1.6-5.5-2.4c-7.5-3.4-14.8-7.8-22-12.4c-0.1-0.1-0.2-0.1-0.4-0.2
		c4.9,0.2,9.9,0.3,15.2,0.3c2.7,0,5.5,0,8.1-0.1c1.3,3.5,2.4,7.2,3.6,10.9C215.7,383.1,216,384.4,216.2,385.8z"/>
	<path class="st0" d="M87.4,227.5c-7.3,0-13.2,5.9-13.2,13.2c0,0.1,0,0.3,0.1,0.4c0.1,7.1,6,12.9,13.2,12.9c7.3,0,13.2-6,13.2-13.3
		c0-3.5-1.3-6.6-3.6-9C94.8,229.2,91.3,227.5,87.4,227.5z M86.8,234c0.3,0.5,0.4,1,0.5,1.5c0.1,0.2,0.1,0.5,0.1,0.7
		c0,2.5-2.1,4.5-4.6,4.5c-1.5,0-2.8-0.7-3.6-1.9c-0.6-0.7-0.9-1.7-0.9-2.7c0-2.5,2-4.6,4.5-4.6C84.5,231.6,86,232.6,86.8,234
		C86.8,234,86.8,234,86.8,234z"/>
	<path class="st0" d="M150.1,234.6c-1.5-2.2-2.3-2.9-2.3-2.9l-7.3,5.2c0,0,0.9,1.3,1.8,3c1,1.7,2.3,4.5,3.6,7.8
		c2.7,6.7,4.8,16.3,4.8,26.1c-0.1,2.5-0.1,4.8-0.4,7.2c-0.2,2.4-0.5,4.8-1,7c-0.9,4.5-2,8.5-3.4,11.9c-1.3,3.4-2.6,6.1-3.7,7.9
		c-1.1,1.8-1.7,2.9-1.7,2.9l7.2,5.3c0,0,4-4.3,7.7-12c1.8-3.9,3.7-8.6,4.8-13.8c0.6-2.6,1.1-5.3,1.4-8.1c0.4-2.8,0.5-5.8,0.6-8.4
		c-0.1-11.3-2.9-22.6-6.7-30.2C153.6,239.6,151.6,236.7,150.1,234.6z"/>
	<path class="st0" d="M307.5,219.8c-0.1,0-0.1-0.1-0.2-0.1c-1.2-0.7-2.6-1.2-4.1-1.4c-0.2-0.1-0.5-0.1-0.7-0.1l-8.7-0.4l-7,0.6
		l-1.3,0.1c-2.8,0.3-5.3,0.9-8,1.2c-2.7,0.4-5.3,1.1-7.8,1.7c-5.2,1.1-10.1,2.6-15,4c-4.8,1.7-9.8,3.2-14.5,5
		c-2.2,0.9-4.5,1.7-6.6,2.7c-3.6,1.5-7.1,3.1-10.6,4.7c-0.4,0.2-0.7,0.3-1.1,0.5c-3.2,1.4-6.5,2.7-9.6,4.2c-4.5,2.2-9,4.5-13.5,6.9
		l-6.6,3.7l-3.5,2c-1.7,1-4,2.8-4.7,3.3c0,0,0,0,0,0l0,0c0,0-0.1,0.1-0.1,0.1l11.9,12.2c0.6-0.4,0.9-0.5,1.1-0.5
		c0.2,0,0.3,0.2,0.4,0.2s0.1-0.1,0.1-0.1l3.1-1.4l6.6-3c4.4-1.9,8.9-3.8,13.3-5.6c8.9-3.7,17.9-7.1,27-10.2c9-3.1,18.1-5.9,27.1-7.8
		c1.8-0.4,3.7-0.8,5.5-1.1c0.3,0,0.7-0.1,1-0.1c-0.8,1.2-1.5,2.4-2.3,3.6c-2.3,3.5-4.8,6.8-7.3,10c-2.5,3.2-5,6.3-7.7,9.2
		c-2.7,2.9-5.5,5.6-8.3,8.1c-3,2.5-6.1,4.8-9.2,6.6c-3.2,2-6.5,3.7-10,5c-1.7,0.8-3.5,1.2-5.3,1.8c-1.8,0.5-3.7,0.9-5.5,1.3l2.2,17
		c4.8-0.4,9.6-1.2,14.4-2.7c4.8-1.3,9.4-3.2,13.8-5.5c4.5-2.2,8.4-5,12.4-7.9c3.7-2.9,7.3-6.1,10.7-9.4c3.2-3.3,6.4-6.8,9.4-10.3
		c2.9-3.6,5.6-7.3,8.3-10.9c3.7-5.4,7.3-10.9,10.8-16.3c1.2-2.1,2.5-4.1,3.7-6.2l0.3-0.5c0.9-1.5,1.4-3.2,1.5-5c0-0.6,0-1.3-0.1-1.9
		C312,224.1,310.1,221.5,307.5,219.8z"/>
</g>
</svg>
