<svg xmlns="http://www.w3.org/2000/svg" viewBox="0 0 513 265.7"><defs><style>.cls-1{fill:#046380;}.cls-2{fill:#fefefe;}.cls-3{fill:#161616;}.cls-4{fill:#225378;}</style></defs><title>tuna</title><g id="レイヤー_2" data-name="レイヤー 2"><g id="描画レイヤー"><path class="cls-1" d="M63,143.24a1.47,1.47,0,1,0,1.47-1.47A1.49,1.49,0,0,0,63,143.24Z"/><path class="cls-1" d="M66.75,93.23l-.76.46-1.26.79L62,96.23Q59.23,98,56.51,99.89c-.85.6-1.71,1.18-2.55,1.8l-2.66,2L45.4,108c-1.56,1.14-3.12,2.3-4.69,3.43l-2.37,1.71.1-.08c1.68-1.37,3.33-2.79,5-4.22s3.32-2.88,4.95-4.36c.47-.42.94-.83,1.39-1.27a18.78,18.78,0,0,0,1.49-1.59,2.45,2.45,0,0,0,.84-1.84l0-.19a1.11,1.11,0,0,0-.12-.27A.81.81,0,0,0,51.6,99a1.49,1.49,0,0,0-.91-.09,5.7,5.7,0,0,0-1.58.59c-.51.24-1,.5-1.5.76-.91.48-1.8,1-2.69,1.49-1.06.59-2.1,1.2-3.15,1.81s-1.85,1.14-2.78,1.7c-.39.24-.76.5-1.14.76l-1.62,1.07c-.94.63-1.86,1.29-2.79,1.93s-1.85,1.26-2.77,1.88c-.51.35-1,.68-1.54,1a1.44,1.44,0,0,0-1.82-.34L24,113.52a13.43,13.43,0,0,0-1.21.81c-.28.2-.55.41-.82.63l-.35.28-.28.28a2.35,2.35,0,0,0-.38.62c0,.11-.08.21-.13.32a1.35,1.35,0,0,0,0,.69,1.29,1.29,0,0,0,.6.77,2,2,0,0,0,1.07.31,2.73,2.73,0,0,0,1.21-.41l.94-.47c.37-.2.74-.42,1.1-.64.53-.31,1-.64,1.56-1s.81-.48,1.2-.74l1.62-1.08c.42-.28.85-.54,1.26-.83l1.36-1,2.59-1.86c1.77-1.29,3.53-2.58,5.37-3.76s3.75-2.38,5.65-3.53c.67-.41,1.33-.83,2-1.22s1.17-.71,1.78-1a20.56,20.56,0,0,1-1.87,2l-1.65,1.52c-.82.76-1.66,1.49-2.49,2.23-1.63,1.45-3.28,2.88-4.93,4.31-3.22,2.78-6.6,5.38-10,8h0c-.36.27-.72.55-1.09.81l-.57.42a5.75,5.75,0,0,0-.93.69.63.63,0,0,0-.09.75.63.63,0,0,0,.37.29.64.64,0,0,0,.47-.06c.34-.15.68-.3,1-.47l1-.54c.41-.21.8-.46,1.2-.7s.93-.54,1.38-.84l1.51-1,1.35-.9c.41-.28.8-.58,1.2-.88l2.5-1.8c3.59-2.59,7.18-5.2,10.73-7.85,1.93-1.45,3.86-2.88,5.79-4.32l1-.67,1.79-1.25c.87-.61,1.76-1.2,2.63-1.79s1.58-1,2.38-1.55c-.76.62-1.52,1.22-2.28,1.83-1.54,1.22-3,2.48-4.55,3.74q-2.84,2.35-5.65,4.74c-1.47,1.25-3,2.48-4.43,3.74-.89.77-1.81,1.52-2.69,2.3l-2.58,2.31c-.42.38-.84.78-1.25,1.17s-.67.61-1,.93c-.84.84-1.68,1.67-2.51,2.53-.37.38-.73.77-1.1,1.16l-.78.83a8.63,8.63,0,0,0-.66.81,1.92,1.92,0,0,0-.32,1,1.35,1.35,0,0,0,.07.41,1.39,1.39,0,0,0,.28.43,1.14,1.14,0,0,0,.39.25,1.83,1.83,0,0,0,.45.15,2.85,2.85,0,0,0,1,0,6.54,6.54,0,0,0,1.17-.33,15.81,15.81,0,0,0,2-.93c.71-.37,1.39-.79,2.07-1.2,2-1.22,3.94-2.54,5.89-3.85.28-.2.54-.41.81-.61l1.87-1.42c.85-.65,1.67-1.36,2.49-2,1.6-1.35,3.16-2.75,4.76-4.1.64-.53,1.26-1.08,1.91-1.6l2.18-1.74c1.33-1,2.67-2.08,4-3.07.72-.52,1.44-1,2.18-1.54.4-.26.8-.52,1.22-.76s1-.52,1.49-.78a.44.44,0,0,0,.16-.6.45.45,0,0,0-.6-.16c-.64.32-1.28.63-1.89,1-.43.25-.85.52-1.26.79-.9.61-1.79,1.21-2.67,1.84l-3,2.19c-.91.68-1.8,1.39-2.69,2.08s-1.5,1.21-2.25,1.82l-2,1.64c-1.44,1.21-2.89,2.4-4.35,3.59l-2.67,2c-.81.6-1.66,1.12-2.5,1.67s-1.63,1-2.46,1.55a38.94,38.94,0,0,1-4.84,2.72h0a8.07,8.07,0,0,1-1.54.47h-.23l.06-.09c.53-.67,1.11-1.28,1.68-1.91l1.12-1.2c.32-.34.64-.66,1-1s.7-.72,1.06-1.07c.77-.72,1.52-1.46,2.29-2.17s1.64-1.51,2.48-2.24c1.83-1.59,3.67-3.16,5.53-4.73,1.5-1.29,3-2.58,4.52-3.84q2.7-2.27,5.41-4.5c1.61-1.33,3.26-2.63,4.87-4L66.24,96l.77-.68c.25-.24.5-.49.73-.75a8.52,8.52,0,0,0,.57-.74.62.62,0,0,0,.06-.48.65.65,0,0,0-.44-.44.79.79,0,0,0-.29-.06,1.91,1.91,0,0,0-.89.36ZM49,115.56l0,0,0,0Zm-25.81,1.89,0,.06,0-.06Zm6,1.36-.07,0,.07,0Zm7.16,4.74-.1,0,.1,0Zm-1.76.74v0Z"/><path class="cls-1" d="M385.14,60.93a9,9,0,0,0-1.55.64,16.7,16.7,0,0,0-1.89,1.07c-1.08.66-2.11,1.42-3.14,2.15s-1.8,1.31-2.7,2c-1.47,1.07-3,2.14-4.49,3.15-1.88,1.22-3.76,2.45-5.64,3.66s-3.69,2.48-5.52,3.76c-3,2.07-5.86,4.28-8.76,6.45-1.54,1.15-3,2.4-4.51,3.61-.68.55-1.3,1.19-1.94,1.78s-1.08,1-1.6,1.5l-4.22,4.14-2.09,2a2.5,2.5,0,0,0-.57-.46,2.61,2.61,0,0,0-2-.26l-.61.26a2.56,2.56,0,0,0-.91.91c-1.1,1.43-2.16,2.88-3.21,4.34l-1.89,2.64a15.81,15.81,0,0,0-1.52,2.39l-.29.67a2.61,2.61,0,0,0-.24,1.13c0,.13,0,.26-.05.4a2.87,2.87,0,0,0,.23,1.11,2.93,2.93,0,0,0,3.6,2.05,5.36,5.36,0,0,0,2.15-1.16c.38-.32.74-.63,1.1-1s.8-.79,1.2-1.19l3-3.08c1.81-1.86,3.68-3.68,5.52-5.51s3.8-3.88,5.77-5.73l2-1.86c.36-.34.7-.68,1.08-1l3.31-2.69q3.71-2.79,7.47-5.53c1.28-.94,2.6-1.83,3.9-2.74s2.58-1.7,3.87-2.54,2.6-1.68,3.9-2.52,2.65-1.81,4-2.74,2.34-1.69,3.51-2.54c-.51,1.49-1,3-1.36,4.51-.5,2.05-.82,4.12-1.13,6.21-.17,1.19-.25,2.38-.36,3.57s-.06,2.2-.07,3.31.05,2,.09,2.93.09,2.15.15,3.22c.09,1.92.15,3.84.25,5.76.21,4.33.54,8.65.8,13,.31,5.3.85,10.6,1.5,15.87.36,2.87.68,5.75,1.09,8.62l1.11,7.87c.25,2,.5,4,.69,6s.35,4.25.5,6.37c.08,1,.06,2.06.07,3.08s0,1.82,0,2.74c0,2.33-.15,4.65-.26,7-.2,3.91-.58,7.84-.93,11.75-.37,4.17-.72,8.34-1,12.52q-.23,3.5-.43,7c-.12,2.11-.18,4.22-.36,6.32a93.38,93.38,0,0,1-8.82-4.6c-1.86-1.1-3.66-2.26-5.46-3.46-1.44-1-2.82-2-4.19-3.07-3.17-2.61-6.27-5.31-9.46-7.9-1.58-1.27-3.19-2.52-4.73-3.84s-3.23-2.83-4.78-4.33c-.65-.63-1.27-1.3-1.92-1.94a15,15,0,0,0-1.16-1.09,4.39,4.39,0,0,0-1.66-1,3.6,3.6,0,0,0-2,0,5.2,5.2,0,0,0-1.49.79c-.33.22-.67.42-1,.64l-2.43,1.53c-1.75,1.11-3.52,2.2-5.24,3.35q-2.31,1.54-4.64,3.07c-3.48,2.31-6.92,4.68-10.36,7s-6.57,4.63-10,6.75-7.05,4.32-10.7,6.25-7.57,4-11.37,5.94c-3.44,1.78-7,3.37-10.5,5s-7,3.15-10.46,4.66c-3.79,1.45-7.57,2.9-11.43,4.16-.93.3-1.86.64-2.8.91l-3.75,1.1c-2,.58-4.05,1.07-6.08,1.6-1.84.47-3.69.89-5.53,1.34s-3.85.95-5.79,1.39c-2.12.49-4.24,1-6.38,1.43s-4.38.89-6.58,1.31c-2.39.45-4.79.87-7.18,1.29-1.88.33-3.77.6-5.65.89s-3.55.43-5.33.57c-2.1.17-4.2.35-6.3.49l-3.74.26c-1,.07-2,.07-3.07.1-2.21.08-4.42.13-6.63.19-3.24.08-6.48.08-9.72.08H148.93c-3.52,0-7,0-10.56,0s-6.89,0-10.34-.14c-1.75-.06-3.51-.07-5.25-.2s-3.53-.21-5.28-.38l-3-.3c-.83-.08-1.65-.14-2.46-.24l-4.74-.62c-4.08-.61-8.14-1.25-12.19-2s-8.31-1.55-12.45-2.35-8.53-1.52-12.8-2.27c-.78-.13-1.54-.27-2.32-.42-1.09-.22-2.2-.4-3.29-.66l-3.57-.84c-1-.23-1.89-.52-2.83-.8s-1.64-.46-2.44-.75L52,225.61l-2.41-1c-.92-.4-1.82-.85-2.72-1.28-1.71-.82-3.41-1.69-5-2.64q-2.73-1.56-5.4-3.22c-1.86-1.15-3.71-2.34-5.57-3.5s-3.54-2.21-5.29-3.35-3.36-2.36-5-3.56-3.27-2.21-4.93-3.28-3.3-2.16-4.92-3.27c-.9-.61-1.77-1.26-2.66-1.88s-1.72-1.19-2.56-1.81l.13-.12a46.13,46.13,0,0,1,8.86-4.9c3.66-1.51,7.35-2.88,11.13-4.06,2.14-.66,4.28-1.32,6.44-2,1.76-.53,3.56-1,5.35-1.41,4-1,8-2,12.06-2.84q3.28-.7,6.55-1.48c2-.49,4.07-1,6.1-1.54,4-1,8-2.23,12-3.52l5.42-1.77c1.43-.48,2.86-1,4.28-1.51a34.34,34.34,0,0,0,3.49-1.6,10.34,10.34,0,0,0,3.54-2.81l.27-.37a6.43,6.43,0,0,0,.48-1,4.42,4.42,0,0,0,.09-2c-.06-.17-.11-.34-.17-.51a2.52,2.52,0,0,0-.66-1.14l-.32-.39c-.29-.25-.58-.48-.89-.71-.71-.54-1.47-1-2.23-1.49-1.57-1-3.16-1.92-4.74-2.91-3.64-2.25-7.26-4.53-10.82-6.9-1.61-1.07-3.15-2.24-4.7-3.39s-3.4-2.47-5.12-3.69-3.35-2.25-5-3.39c-1.83-1.25-3.67-2.47-5.52-3.68-.72-.47-1.46-.89-2.2-1.33s-1.56-.94-2.36-1.39c-2-1.15-4.07-2.29-6.13-3.4-1.64-.9-3.33-1.74-5-2.6l-5.67-3c-1.55-.82-3.09-1.64-4.62-2.48l-1.88-1c-.81-.44-1.62-.94-2.47-1.33a37.11,37.11,0,0,0-8.14-3c-.89-.18-1.78-.37-2.68-.5l-1-.14,1.94-1c2.1-1.09,4.22-2.15,6.34-3.19,1-.51,2.11-1,3.16-1.43l3.43-1.54c2.26-1,4.54-2,6.82-3,1.81-.71,3.62-1.43,5.45-2.1,2.12-.77,4.23-1.54,6.36-2.29,4-1.44,8.14-2.74,12.24-4,3.89-1.23,7.78-2.39,11.68-3.55,2-.6,4.12-1.11,6.17-1.67s4.25-1,6.37-1.55c1.79-.43,3.61-.76,5.41-1.14s3.39-.67,5.09-1,3.19-.61,4.79-.88l6.32-1,6.56-.85c2-.26,4.08-.4,6.11-.59,1.87-.18,3.74-.32,5.6-.46s3.82-.3,5.74-.39c2.25-.11,4.51-.25,6.76-.32l7.43-.21c1.94-.06,3.87,0,5.81,0s3.64,0,5.45,0c2.1,0,4.21,0,6.31.09l7.52.27c4,.14,8.05.38,12.07.62,8.6.52,17.18,1.4,25.75,2.34,2.69.29,5.36.68,8,1H210l6.57.93c2.11.29,4.22.69,6.34,1l12.24,2.07c4,.69,7.91,1.46,11.86,2.17,4.18.75,8.36,1.51,12.56,2.19q8.32,1.35,16.61,3c1.25.25,2.5.49,3.73.79l2.74.67c.49.12,1,.22,1.45.37l4.4,1.36c.61.19,1.2.46,1.8.68l2.14.81h0l3.35,1.42c1.15.49,2.28,1.07,3.42,1.61s2,1.05,3,1.57,1.95,1,2.88,1.54c2.07,1.21,4.1,2.46,6.12,3.74.88.56,1.73,1.18,2.62,1.74s1.84,1.16,2.72,1.81l1.07.84a.7.7,0,0,0,1,0,.68.68,0,0,0,0-1c-.7-.55-1.39-1.11-2.13-1.62s-1.55-1-2.31-1.53c-1.65-1.12-3.3-2.23-5-3.3a106.44,106.44,0,0,0-10.85-6c-.79-.39-1.58-.77-2.39-1.12-1-.45-2-.94-3.08-1.34l-3.33-1.31c-.86-.33-1.75-.6-2.63-.88s-1.71-.6-2.57-.82l-3.91-1c-2-.51-4-.88-6-1.3-8-1.67-16-3-24-4.5-2.07-.4-4.14-.78-6.21-1.19S240,90,237.84,89.65l-13.2-2.41-6.33-1.13c-2-.37-4.1-.66-6.15-1-3.86-.59-7.73-1.15-11.61-1.61-4.22-.52-8.44-1.06-12.67-1.45l-7.24-.69c-2.06-.2-4.12-.31-6.19-.46-3.81-.28-7.62-.52-11.44-.69-2.2-.1-4.4-.25-6.6-.3L149,79.76c-2,0-4,0-5.93,0s-3.65,0-5.48,0c-2.08,0-4.16,0-6.24.12l-7.44.29c-2.15.08-4.3.27-6.44.41-1.9.13-3.79.3-5.68.46s-3.79.32-5.68.55c-2.17.26-4.34.47-6.5.8l-7,1.1c-2.22.35-4.44.79-6.66,1.19-2,.37-4.06.8-6.09,1.2s-3.93.88-5.9,1.34c-8.21,1.92-16.26,4.4-24.31,6.87q-5.57,1.71-11,3.7c-2,.72-4,1.43-6,2.19-1.1.43-2.22.83-3.31,1.3L26,102.68c-2.54,1.08-5.05,2.25-7.57,3.37s-5.1,2.35-7.62,3.61-4.72,2.4-7,3.66a5.32,5.32,0,0,0-2.24,1.79,2.29,2.29,0,0,0-.32,1.17,1.8,1.8,0,0,0,.07.83c.09.26.2.51.31.76a3.75,3.75,0,0,0,1.12,1,11.25,11.25,0,0,0,1.14.45,9,9,0,0,0,.9.19c.37.07.75.11,1.13.17l2.6.36L7.86,120c.9.13,1.8.26,2.69.44.64.12,1.27.25,1.9.4a32.48,32.48,0,0,1,3.94,1.31l2.41,1.11c.43.2.83.45,1.24.67l1.57.84c1.91,1,3.81,2.1,5.74,3.12,3.55,1.89,7.13,3.73,10.7,5.59s7.2,4,10.73,6.15c.92.56,1.81,1.2,2.71,1.8.72.48,1.45,1,2.17,1.47q2.81,1.92,5.62,3.83c2.27,1.54,4.46,3.21,6.65,4.86,2.35,1.78,4.79,3.44,7.27,5s4.79,3.08,7.19,4.61c1.18.76,2.36,1.5,3.56,2.24.66.4,1.31.81,2,1.25A21.34,21.34,0,0,1,83,166.27c-2.32.94-4.73,1.67-7.12,2.43l-6.43,2c-3.94,1.25-8,2.24-12,3.27s-7.82,1.84-11.73,2.74-8,1.86-11.91,2.92c-1,.26-1.9.49-2.83.77l-3.5,1.07c-2,.6-3.93,1.25-5.89,1.91s-3.91,1.39-5.84,2.15c-1.1.44-2.18.9-3.26,1.37-.89.37-1.79.75-2.65,1.19a44.82,44.82,0,0,0-5.31,3,27.93,27.93,0,0,0-2.86,2.21A5.5,5.5,0,0,0,.12,196a4,4,0,0,0,1,3.61,17.12,17.12,0,0,0,3.14,2.54c.86.6,1.71,1.21,2.56,1.83,1.52,1.12,3.1,2.16,4.68,3.21,1.79,1.19,3.59,2.37,5.36,3.6s3.37,2.46,5.06,3.68,3.43,2.31,5.17,3.43S30.34,220,32,221s3.34,2.19,5.06,3.2c.87.51,1.73,1,2.61,1.53l3.23,1.75c.91.49,1.85.91,2.77,1.37s1.79.82,2.69,1.22,1.77.8,2.68,1.13l3.41,1.25c.38.14.79.24,1.18.36l2.08.63c.92.28,1.84.5,2.77.74s1.73.44,2.6.62l3.91.81c1.81.38,3.65.67,5.48,1q3.39.6,6.78,1.26c3.91.77,7.81,1.56,11.72,2.31,4.34.84,8.68,1.62,13,2.32,2.16.35,4.32.63,6.49.93s4.58.52,6.88.76c1.89.2,3.8.3,5.7.45,1,.07,2,.08,3,.13s1.86.09,2.78.11c8.65.18,17.3.2,26,.22,8.09,0,16.18.06,24.27-.2l3.64-.12c1.06,0,2.13-.14,3.2-.21q3.24-.22,6.48-.5c2-.16,4.07-.42,6.11-.64,1-.11,2-.29,2.95-.43l3.42-.53c1.92-.29,3.84-.65,5.75-1,2.09-.39,4.17-.77,6.25-1.2s4.31-.9,6.47-1.4,4.37-1,6.55-1.55q6.09-1.47,12.15-3c.94-.24,1.88-.55,2.81-.83s1.71-.49,2.55-.76c2.09-.69,4.17-1.37,6.24-2.13s4.21-1.56,6.31-2.38,4.25-1.78,6.37-2.7c1.68-.73,3.33-1.52,5-2.29,2-.94,4.06-1.87,6.08-2.82,3.66-1.72,7.25-3.56,10.81-5.45s7.28-3.79,10.81-5.86,7.11-4.23,10.51-6.59,7-4.82,10.44-7.24,6.7-4.55,10-6.84c1.64-1.12,3.29-2.21,4.95-3.3l2.31-1.54L338,183l1,1c.72.77,1.45,1.52,2.19,2.27,1.41,1.44,3,2.75,4.51,4,3.18,2.66,6.38,5.29,9.5,8,1.6,1.41,3.24,2.79,4.93,4.11s3.67,2.77,5.58,4.08a94.27,94.27,0,0,0,10.52,6.13,52.38,52.38,0,0,0,6,2.69,4.24,4.24,0,0,0,1.66.2l.91-.12c.38-.15.76-.31,1.13-.49a4.42,4.42,0,0,0,1.5-1.51,11.62,11.62,0,0,0,.67-1.63,10.36,10.36,0,0,0,.3-1.57c.11-.75.19-1.49.26-2.24s.11-1.52.15-2.28c.21-4.22.42-8.44.69-12.66.13-2,.23-4,.39-5.94s.34-4.1.49-6.16.33-4.41.47-6.62.24-4.64.31-7q.13-3.81,0-7.62c-.05-1.29-.12-2.56-.23-3.85s-.23-2.54-.36-3.81c-.61-5.54-1.47-11-2.3-16.56-.53-4-1.06-8.09-1.52-12.14s-.81-8.36-1.07-12.56-.55-8.43-.75-12.66c-.09-2-.13-4-.21-6,0-.94-.06-1.88-.09-2.81,0-1.11,0-2.2,0-3.31,0-.53,0-1.07.08-1.61l.21-2.14c.29-1.79.57-3.58,1-5.33.26-1,.52-2,.84-2.94s.64-1.88,1-2.82c.62-1.75,1.34-3.48,1.94-5.23a6.83,6.83,0,0,0,.34-1.79,3.69,3.69,0,0,0-.47-1.74,3.84,3.84,0,0,0-1.21-1.26,3.69,3.69,0,0,0-1.73-.53h-.12a5.57,5.57,0,0,0-1.35.19Zm-53.67,48.15,0,.13a.51.51,0,0,1,0-.13ZM87,163.72a2.23,2.23,0,0,1-.19.24l.19-.24Zm-81.52,33,0,0h0l0,0Zm101,40,.48.06-.48-.06Z"/><path class="cls-1" d="M220.62,58.24c-4.81.21-9.61.28-14.41.6-4.62.31-9.24.69-13.83,1.27q-4,.51-8,1.12c-1.23.19-2.46.44-3.7.67s-2.38.45-3.57.68c-4.44.85-8.87,1.8-13.21,3-4.62,1.28-9.2,2.65-13.78,4-2,.63-4.1,1.26-6.14,1.92s-3.85,1.39-5.75,2.12c-.92.35-1.82.73-2.73,1.1l-.3.13a1.51,1.51,0,0,0-.35.14c-.77.34-1.52.71-2.28,1.07a16.25,16.25,0,0,0-3.23,2.06,6.32,6.32,0,0,0-1.23,1.35,3.65,3.65,0,0,0-.39,1,4.54,4.54,0,0,0-.13,1,2.85,2.85,0,0,0,.45,1.47,6.62,6.62,0,0,0,.45.63c.31.44.6.89.9,1.34A1.51,1.51,0,0,0,132,83.38c-.23-.36-.47-.72-.71-1.08s-.34-.5-.5-.77l.07-.11a5.56,5.56,0,0,1,.5-.47,15.59,15.59,0,0,1,2.92-1.66l-.29.13.29-.13.14-.06-.14.06,1.5-.63.59-.25,0,0c2.24-.82,4.47-1.63,6.72-2.39s4.63-1.46,7-2.15c4.4-1.29,8.78-2.62,13.2-3.8,2.22-.6,4.45-1.15,6.69-1.69s4.56-1,6.84-1.42c1.92-.38,3.85-.73,5.77-1.06,2.18-.37,4.35-.71,6.54-1,4.76-.55,9.52-1,14.3-1.34q3.51-.23,7-.36c2.41-.09,4.83-.12,7.25-.17,6.22-.1,12.45-.57,18.65,0a18.16,18.16,0,0,1,1.94.44c-.21.33-.44.66-.68,1-.63.79-1.3,1.56-2,2.34s-1.18,1.24-1.77,1.85c-1.19,1.23-2.49,2.37-3.75,3.55s-2.42,2.28-3.61,3.44c-.52.51-1,1-1.54,1.55l-.89.94a9.82,9.82,0,0,0-1.89,2.76c-.1.22-.19.45-.29.68a2.93,2.93,0,0,0,0,1.5,2.85,2.85,0,0,0,3.5,2A2.75,2.75,0,0,0,227,83.79a9,9,0,0,1,.63-1.14c.79-.94,1.66-1.81,2.5-2.71s1.58-1.62,2.38-2.42l2.77-2.77c.73-.73,1.49-1.46,2.18-2.23.85-.94,1.67-1.87,2.46-2.85.61-.77,1.21-1.54,1.79-2.33,1.07-1.48,2.07-3.32,1.73-5.21-.44-2.37-3.13-3.08-5.15-3.56a23.3,23.3,0,0,0-3.91-.45c-1.6-.1-3.2-.14-4.8-.14-3,0-6,.14-8.94.26Zm18.48,5.64h0l.07.11-.09-.12ZM130.84,81.34l0,.1h0s0-.07,0-.11Zm-.05.13v0Zm-.08.18,0,.08,0-.08Zm3.55-2.36Z"/><path class="cls-1" d="M317.16,137.52c-1.32.09-2.65.14-4,.24a47.76,47.76,0,0,0-9.15,1.86c-6.07,1.66-12.14,3.35-18.26,4.85-1.67.41-3.34.79-5,1.18-1.36.3-2.72.61-4.09.86-3.29.59-6.6,1.11-9.92,1.59-3.15.45-6.3,1-9.45,1.45-5.91.76-11.84,1.47-17.79,1.9-3.19.22-6.39.48-9.59.61s-6.38.22-9.57.23c-6.47,0-12.94.12-19.4,0s-12.85-.46-19.27-.91c-12.83-.89-25.67-1.8-38.51-2.64-3.15-.2-6.3-.33-9.45-.46-1.48-.05-3-.06-4.44-.09s-3-.08-4.43-.07c-3.28,0-6.56.09-9.84.23s-6.28.39-9.41.71c-4.79.49-9.56,1.13-14.33,1.79-1.91.25-3.81.47-5.73.65s-3.92.23-5.88.32c-4.2.21-8.41.32-12.59.79a2.39,2.39,0,0,0-1.56.65,2.2,2.2,0,0,0,0,3.12,2.09,2.09,0,0,0,1.56.65c1.58-.18,3.17-.34,4.76-.41s3.2-.12,4.8-.2c3-.14,6.11-.16,9.15-.42,1.74-.15,3.46-.32,5.19-.53,1.36-.16,2.72-.35,4.08-.51,3.37-.39,6.75-.74,10.14-1.07A185.31,185.31,0,0,1,124,153.2c3.17,0,6.34.18,9.5.3,3,.11,5.93.33,8.89.57,12.71,1,25.42,2.11,38.13,3.19,6.43.54,12.86,1,19.3,1.24s13,.29,19.47.35c3.21,0,6.41,0,9.62-.07s6.4-.27,9.61-.46c6.39-.38,12.76-1,19.11-1.81,3.18-.38,6.33-.93,9.5-1.37s6.35-.85,9.5-1.4c6.2-1.08,12.34-2.58,18.41-4.23q4.85-1.32,9.67-2.69a72.87,72.87,0,0,1,8.94-2.2c1.1-.14,2.19-.25,3.28-.42.51-.07,1-.16,1.51-.24.14.27.26.55.41.81.33.61.73,1.17,1.1,1.76a32.12,32.12,0,0,1,2,3.82c.22.53.44,1.05.67,1.58.61,1.52,1.25,3,1.9,4.56a68.58,68.58,0,0,0,4.12,9.12,73.55,73.55,0,0,0,5.78,8.25c1,1.19,2,2.35,3,3.49a31.68,31.68,0,0,0,3.1,3.14,20.94,20.94,0,0,0,4.09,2.88,22.13,22.13,0,0,0,4.94,1.8c1.5.37,3,.66,4.54,1a30.84,30.84,0,0,1,4.84,1.2l.73.31a3.46,3.46,0,0,0,1.75,0,3.3,3.3,0,0,0,.79-6,22.38,22.38,0,0,0-3.69-1.52,24.16,24.16,0,0,0-2.8-.64,44.55,44.55,0,0,1-7.21-1.74,16.7,16.7,0,0,1-2.59-1.49,52.15,52.15,0,0,1-7.31-7.83c-1.22-1.62-2.38-3.27-3.48-5a40.73,40.73,0,0,1-3-5.72q-1.23-3-2.51-6a54.6,54.6,0,0,0-3.76-8.14c-.35-.57-.75-1.1-1.09-1.66s-.57-1-.86-1.47a5.88,5.88,0,0,0-2.68-2.27,6.27,6.27,0,0,0-2.5-.69h-.23c-.44,0-.91.08-1.35.11ZM258,149.45l-.24,0,.24,0Zm63.62.12.13.3c-.05-.1-.09-.2-.13-.3Zm2.9,6.93.33.78c-.11-.27-.22-.52-.33-.78Z"/><path class="cls-1" d="M359.28,95a13,13,0,0,0-3.64.76c-.7.22-1.41.45-2.11.7-1.75.63-3.49,1.29-5.24,2-3.07,1.19-6.11,2.48-9.13,3.82-6.38,2.82-12.72,5.77-19.05,8.72-3,1.38-5.92,2.79-8.87,4.19-1.26.59-2.48,1.27-3.72,1.9q-2.67,1.35-5.32,2.72-9.17,4.69-18.34,9.35c-3.41,1.73-6.85,3.41-10.27,5.12-1.56.76-3.14,1.48-4.71,2.23-2.32,1.1-4.64,2.19-7,3.2a70,70,0,0,1-7,2.52c.78-.53,1.57-1,2.36-1.56,2.68-1.73,5.36-3.45,8.07-5.13q4.77-3,9.51-6c2.6-1.63,5.18-3.27,7.81-4.84,2.92-1.75,5.84-3.5,8.78-5.22,3.21-1.88,6.41-3.78,9.48-5.89a25.76,25.76,0,0,0,2.54-2A5.15,5.15,0,0,0,305,109.3a3.51,3.51,0,0,0,.15-1.44c0-.22-.06-.44-.09-.66a2.39,2.39,0,0,0-.64-1.11,4.45,4.45,0,0,0-3.22-1,23.81,23.81,0,0,0-3.65.46c-.84.13-1.68.31-2.52.46-1.47.27-2.92.63-4.37,1s-3.13.8-4.68,1.28-3.12.92-4.66,1.46l-5.88,2.06c-1.34.47-2.67,1-4,1.47s-2.85,1-4.27,1.59c-3.25,1.28-6.51,2.51-9.72,3.87s-6.14,2.56-9.18,3.92q-8.79,3.91-17.56,7.86l-9.18,4.12c-2.78,1.24-5.58,2.43-8.38,3.65l-5.94,2.34c-1.69.66-3.4,1.3-5.14,1.84.47-.31,1-.61,1.43-.91q4.56-2.88,9.13-5.75c2.78-1.75,5.62-3.4,8.43-5.09,1.4-.83,2.85-1.58,4.26-2.38l3.69-2.05c2.73-1.5,5.45-3,8.19-4.5s5.68-3.11,8.56-4.59,5.87-3,8.76-4.59L259.2,110c2-1.08,3.88-2.21,5.77-3.41a27.48,27.48,0,0,0,2.54-1.77,7.71,7.71,0,0,0,1-1,14.66,14.66,0,0,0,.93-1.3,2.38,2.38,0,0,0-.38-2.92,6.52,6.52,0,0,0-.93-.71,3.09,3.09,0,0,0-1.66-.34,8,8,0,0,0-1.18.17l-.7.1c-.77.11-1.54.25-2.3.4-1.77.35-3.51.75-5.26,1.16-3.32.78-6.57,1.8-9.82,2.82-1.34.42-2.66.88-4,1.35-1.54.56-3.1,1.06-4.62,1.66-3.1,1.24-6.22,2.43-9.29,3.75-6.16,2.65-12.33,5.29-18.41,8.12q-9.85,4.57-19.72,9.1l-4.78,2.2c1.18-.61,2.36-1.22,3.53-1.85,3.14-1.65,6.3-3.25,9.4-5l8.62-4.75c3-1.68,6.07-3.33,9.07-5.07l4.75-2.77c.6-.34,1.17-.73,1.75-1.1l3-1.88c.46-.29.91-.59,1.36-.89s1.16-.81,1.71-1.25c.27-.21.53-.43.78-.65a11.55,11.55,0,0,0,1-1.12,2.51,2.51,0,0,0,.67-1.65,2.56,2.56,0,0,0-.67-1.64,3.19,3.19,0,0,0-.82-.73,3.1,3.1,0,0,0-1.59-.32,10.42,10.42,0,0,0-1.81.32c-.75.14-1.51.3-2.26.48-1.74.42-3.46.86-5.19,1.33s-3.27,1-4.89,1.59-3.13,1.19-4.68,1.78c-1.3.5-2.58,1-3.86,1.57-1.67.71-3.34,1.39-5,2.11-2.95,1.28-5.9,2.54-8.83,3.84-3.14,1.41-6.29,2.8-9.41,4.26l-5.54,2.59c-1.24.58-2.44,1.24-3.66,1.85q-4.49,2.28-8.94,4.61t-8.81,4.6l-7.79,4c-3,1.52-5.93,3.09-8.93,4.55,1-.64,2.09-1.26,3.15-1.87q9.07-5.25,18.24-10.31c5.36-2.94,10.71-5.89,16.11-8.76q4.14-2.2,8.26-4.43c2.14-1.15,4.26-2.33,6.33-3.61a54.4,54.4,0,0,0,4.93-3.45,17.86,17.86,0,0,0,2.25-2,4,4,0,0,0,.69-1.09,6.44,6.44,0,0,0,.37-1.18,1.89,1.89,0,0,0-.86-2.12c-.42-.21-.83-.39-1.27-.56a3.31,3.31,0,0,0-1.33,0c-.56.06-1.11.15-1.66.22l-1,.16a1.55,1.55,0,0,0-.36-.48,7.49,7.49,0,0,0-1-.73,3.12,3.12,0,0,0-1.54-.32c-.15,0-.55.06-.77.08l-.77.08c-.82.09-1.64.21-2.45.31-1.63.22-3.27.49-4.9.77q-4.87.84-9.71,2c-1.51.36-3,.68-4.52,1.1l-5.85,1.63c-1.55.43-3.06,1-4.6,1.45-1.27.39-2.54.79-3.81,1.21q-10,3.3-20.05,6.65-3.73,1.25-7.47,2.46l-.57-.06a28.92,28.92,0,0,0-6.89.26,64.11,64.11,0,0,0-7.72,1.6q-2.4.63-4.8,1.29c-.8.21-1.6.45-2.39.68-.37.1-.74.22-1.1.34a6.44,6.44,0,0,0-.81.29,2.91,2.91,0,0,0-1,.79,1.56,1.56,0,0,0,0,2.2,7.58,7.58,0,0,0,1,.77,3.35,3.35,0,0,0,1.35.36,14.61,14.61,0,0,0,3,0,41.19,41.19,0,0,0,7-1.17c2.27-.52,4.49-1.17,6.72-1.82,2.64-.75,5.26-1.57,7.89-2.39l3.37.52a1.5,1.5,0,0,0,1.81-1,1.63,1.63,0,0,0-.13-1.1c5-1.6,10-3.27,15-4.87,3.26-1,6.53-2.1,9.8-3.1l5.3-1.62c.6-.18,1.22-.33,1.82-.49l3.56-1c1.48-.4,3-.76,4.49-1.1h0c-.4.13-.78.29-1.18.44l-3.39,1.3c-3.25,1.25-6.47,2.56-9.69,3.86s-6.1,2.6-9.15,3.91c-.42.18-.82.39-1.23.59l-3.24,1.55c-1.27.61-2.57,1.18-3.82,1.84-5.84,3.06-11.67,6.12-17.45,9.3-2.81,1.54-5.65,3-8.42,4.66s-5.6,3.24-8.37,4.92q-4.49,2.73-9,5.44l-3.63,2.19c-1.91,1.14-3.81,2.37-5.8,3.38l-.93.45a2.31,2.31,0,0,0,0,4,2.19,2.19,0,0,0,1.78.23,29.9,29.9,0,0,0,4.48-2.27l.45-.21c1.62-.75,3.24-1.49,4.88-2.21,2.9-1.29,5.8-2.55,8.7-3.83q4.94-2.19,9.86-4.45c2.82-1.29,5.61-2.67,8.41-4,6.24-3,12.43-6.1,18.64-9.16s12.47-6,18.73-9c3.59-1.69,7.22-3.32,10.79-5.06l7.24-3.54c1.79-.87,3.57-1.78,5.32-2.72,1.22-.66,2.44-1.35,3.64-2,.27-.16.54-.34.8-.52,1.05-.24,2.11-.47,3.16-.68l-.94.76c-4.49,3.38-9.52,6-14.44,8.66-2.74,1.5-5.5,3-8.25,4.42s-5.49,3-8.25,4.53c-2.93,1.59-5.87,3.16-8.79,4.78-5.18,2.86-10.36,5.71-15.49,8.66-2.38,1.37-4.74,2.76-7.11,4.15-1.29.77-2.58,1.53-3.89,2.27-.6.35-1.2.68-1.81,1l-1,.56a3,3,0,0,0-1,1,6.28,6.28,0,0,0-.43,1,2.15,2.15,0,0,0,.22,1.73,2.29,2.29,0,0,0,1.94,1.11,11.8,11.8,0,0,0,1.46.08l.61-.08a10.47,10.47,0,0,0,1.12-.19c1.12-.22,2.22-.62,3.31-.95a71.07,71.07,0,0,0,7-2.68c2.68-1.16,5.3-2.48,7.9-3.81,3-1.53,6-3.05,9-4.6s5.9-3,8.84-4.56,5.91-3.12,8.89-4.63,6.06-3.12,9.15-4.56,6.3-3,9.48-4.39c6.13-2.75,12.29-5.41,18.48-8l5.14-2c1.58-.62,3.21-1.11,4.82-1.65l.16,0c-.93.58-1.86,1.14-2.81,1.7-1.49.89-3,1.82-4.5,2.67l-5,2.79c-3,1.7-6,3.38-9.09,5.07-2.82,1.58-5.7,3.07-8.56,4.59s-5.49,2.88-8.26,4.28l-9.59,4.86c-5.79,2.94-11.52,6-17.34,8.92l-1.31.64-.66.28c-.26.19-.51.39-.76.59a3.89,3.89,0,0,0-.84,1.53,2.52,2.52,0,0,0,1.76,3.1c.52.08,1.06.2,1.59.23a8.11,8.11,0,0,0,1.7-.12,29.1,29.1,0,0,0,3.33-.74c2.41-.65,4.76-1.48,7.09-2.36,3.09-1.18,6.13-2.53,9.14-3.91l9-4.12c6.3-2.89,12.62-5.77,18.92-8.7,4.74-2.22,9.49-4.44,14.26-6.6,2.14-1,4.28-2,6.44-2.89l7.74-3.35,3.81-1.54c1.3-.52,2.59-1.09,3.91-1.57,2.88-1,5.76-2.13,8.69-3.06s6-1.9,9-2.65h.05l-2,1.14-5.53,3.07c-2.65,1.47-5.4,2.76-8.06,4.2q-8.79,4.74-17.55,9.55l-5.68,3.12c-1.26.69-2.49,1.45-3.73,2.17-3.08,1.81-6.14,3.66-9.19,5.52-2.72,1.67-5.46,3.3-8.18,5-1.27.78-2.54,1.56-3.79,2.36l-1.27.79c-.36.23-.72.49-1.08.71a3.78,3.78,0,0,0-1,.85l-.44.56a2.71,2.71,0,0,0-.37,1.39c0,.12,0,.23,0,.35a2.75,2.75,0,0,0,.38,1.4,3,3,0,0,0,1.15,1.32,4.15,4.15,0,0,0,2,.65,19.46,19.46,0,0,0,6.31-.55,59.69,59.69,0,0,0,7.14-2.13c.51-.18,1-.4,1.51-.6l3.44-1.34c1.36-.54,2.74-1.06,4.08-1.64l5.89-2.57c6.13-2.68,12.21-5.48,18.31-8.24l11.09-5c3.13-1.42,6.31-2.75,9.48-4.11,2.83-1.13,5.65-2.31,8.5-3.39,3.3-1.25,6.59-2.51,9.91-3.7,1.45-.52,2.89-1.07,4.36-1.54l3-1c.7-.22,1.4-.48,2.1-.67,1.54-.41,3.06-.87,4.61-1.23l2.28-.53-2.38,1.51c-1.25.8-2.54,1.54-3.82,2.3-3,1.79-6.08,3.61-9.12,5.43-2.54,1.52-5.05,3.1-7.56,4.66q-4.77,3-9.56,5.89c-5.46,3.33-10.89,6.7-16.24,10.21a21.36,21.36,0,0,0-2.11,1.57,3.55,3.55,0,0,0-.85,1.45,3.62,3.62,0,0,0,.85,3.38,4.22,4.22,0,0,0,1.54.93,9.34,9.34,0,0,0,3.72.36,28.51,28.51,0,0,0,3.55-.57c1.1-.22,2.19-.53,3.27-.86a69.1,69.1,0,0,0,6.8-2.48c4.14-1.72,8.15-3.69,12.2-5.61,3.08-1.45,6.1-3,9.15-4.54s6.07-3.08,9.11-4.63c5.9-3,11.77-6.06,17.66-9.09,2.57-1.33,5.18-2.55,7.79-3.8l8.27-3.9q8.08-3.8,16.24-7.43l1.71-.71-.6.4-8.86,6c-5.43,3.64-10.93,7.18-16.36,10.82-2.57,1.71-5.13,3.44-7.65,5.23-1.4,1-2.81,2-4.18,3-.92.7-1.85,1.39-2.77,2.1-.72.56-1.42,1.16-2.13,1.74-.11.09-.21.19-.31.29-.23.28-.45.57-.67.87a9.88,9.88,0,0,0-.63,1.7,2.7,2.7,0,0,0,.27,2.1,3,3,0,0,0,1.64,1.27,8.25,8.25,0,0,0,1.43.47,5.12,5.12,0,0,0,1.95,0,14.43,14.43,0,0,0,2.93-.85,42.35,42.35,0,0,0,5.93-2.73l5.28-2.9c1-.54,1.94-1.1,2.9-1.66l-1.33,1.13c-.57.48-1.14,1-1.69,1.46-.79.74-1.59,1.46-2.35,2.22a14.45,14.45,0,0,0-2,2.34,4.49,4.49,0,0,0-.49,1.43,3.58,3.58,0,0,0,.32,2.45,5.19,5.19,0,0,0,.86,1.06,5.5,5.5,0,0,0,1.2.81,8.56,8.56,0,0,0,3.26.81,14.36,14.36,0,0,0,3.52-.24,36.82,36.82,0,0,0,4-.94,54.76,54.76,0,0,0,6.31-2.31c2.29-1,4.53-2,6.75-3.15,1.79-.9,3.55-1.87,5.31-2.81,5.12-2.73,10.12-5.68,15.13-8.59,2.4-1.39,4.79-2.79,7.21-4.13.45-.26.92-.51,1.38-.76-.53.58-1.06,1.15-1.61,1.71s-1.13,1.09-1.69,1.63c-1.13,1.08-2.24,2.19-3.4,3.24q-4.08,3.71-8.2,7.34c-2.29,2-4.67,3.93-7,5.89-2.7,2.26-5.38,4.53-8,6.88A38,38,0,0,0,338,154a4,4,0,0,0-.6.84,3.78,3.78,0,0,0-.48,1.79c0,.38.08.76.14,1.13a4.06,4.06,0,0,0,1,1.51,8.83,8.83,0,0,0,.92.69l.41.18a4.59,4.59,0,0,0,1.09.4,8.46,8.46,0,0,0,1.67.19,11.39,11.39,0,0,0,1.43-.05c3.86-.24,7.59-1.64,11.13-3.1,2.3-1,4.56-2,6.83-3.1q4.14-2,8.27-4c2.27-1.11,4.56-2.14,6.87-3.15,1.06-.42,2.12-.85,3.19-1.24l-.6.89c-.27.39-.55.76-.82,1.13l-1.86,2.48.4-.51c-2,2.58-4,5.19-6,7.73s-4.34,5.21-6.42,7.89a44.35,44.35,0,0,0-3.05,4.41,6.78,6.78,0,0,0-.62,1.5c0,.26-.07.52-.11.78a2.45,2.45,0,0,0,.06,1.23,4.53,4.53,0,0,0,.5,1.52,8.43,8.43,0,0,0,.94,1.28,6.81,6.81,0,0,0,1.3,1,5.91,5.91,0,0,0,1.51.7,12.49,12.49,0,0,0,3.69.59,18.66,18.66,0,0,0,3.43-.37,22.92,22.92,0,0,0,3.27-.9c1.11-.36,2.16-.82,3.23-1.28.62-.26,1.23-.53,1.83-.83,1-.5,2-1,3-1.51-2.18,2.48-4.38,4.93-6.57,7.39-1.19,1.33-2.38,2.64-3.52,4s-2.32,2.78-3.47,4.18-2.21,2.81-3.28,4.23a19.2,19.2,0,0,0-1.77,2.72,13.24,13.24,0,0,0-1.1,3.47c-.11.62-.17,1.27-.25,1.9s-.13,1.11-.19,1.66a3.06,3.06,0,0,0,4.59,2.64,2.94,2.94,0,0,0,1.4-1.83,31.28,31.28,0,0,1,1.15-5,31.07,31.07,0,0,1,2.95-4.55c.86-1.19,1.74-2.34,2.63-3.5,1.19-1.49,2.39-3,3.62-4.43,1.44-1.69,2.89-3.36,4.33-5,2.54-2.93,5.06-5.9,7.43-9l-.12.16,1.63-2.12c.37-.46.73-.93,1.09-1.41s.57-.75.84-1.15a8.79,8.79,0,0,0,.86-1.9,2.6,2.6,0,0,0-.27-2.09,2.79,2.79,0,0,0-2.34-1.34A3.09,3.09,0,0,0,392,163a13,13,0,0,0-1.38.58c-.31.16-.61.3-.92.44q-.81.39-1.59.81l-4,2.17c-2.61,1.43-5.26,2.76-8,3.94a28.5,28.5,0,0,1-5.84,1.77,14.68,14.68,0,0,1-2.39.06,7.85,7.85,0,0,1-1-.25l-.07,0c.35-.66.75-1.3,1.16-1.92.64-1,1.29-1.91,2-2.85l-.06.08,1.47-1.9-.43.56,2.2-2.83-.09.12q3.25-4.22,6.43-8.5,1.62-2.14,3.18-4.34a34.88,34.88,0,0,0,2.11-3.17,8.78,8.78,0,0,0,1.18-3,3.92,3.92,0,0,0,0-1.67,3.76,3.76,0,0,0-.91-1.73l-.5-.38a6.43,6.43,0,0,0-1-.44l-.44-.07a2.61,2.61,0,0,0-1.18,0,12.33,12.33,0,0,0-2.6.63c-.78.26-1.57.5-2.35.78-1.7.62-3.36,1.29-5,2s-3.12,1.36-4.66,2.08l-4.68,2.21c-3.05,1.44-6.12,2.87-9.23,4.22a43.72,43.72,0,0,1-9,2.85c.64-.61,1.3-1.21,1.94-1.8,1.24-1.15,2.51-2.25,3.78-3.36,2.56-2.26,5.18-4.44,7.79-6.64,2.22-1.87,4.38-3.82,6.52-5.78l4.27-3.92c1.35-1.24,2.63-2.56,3.95-3.83a56,56,0,0,0,5.65-6.46,10.91,10.91,0,0,0,1.24-2.11,4.38,4.38,0,0,0,.47-3,2.45,2.45,0,0,0-.62-1.08,3.77,3.77,0,0,0-1.35-.83,3.38,3.38,0,0,0-1.67-.1l-.49.11-1.08.46.59-.25c-1.52.61-3,1.23-4.5,1.95-1.66.8-3.28,1.64-4.91,2.49-2.83,1.48-5.6,3.1-8.39,4.67l-9.42,5.27c-1.22.68-2.48,1.32-3.71,2-1.93,1-3.86,2-5.81,3-1.51.75-3,1.47-4.58,2.14a47,47,0,0,1-9.94,3.18c-.44,0-.87.09-1.31.1a96.64,96.64,0,0,1,9.19-8.07c5.44-4.13,10.94-8.17,16.47-12.18,5.06-3.66,10.09-7.34,15.15-11l4.31-3.12,3-2.18c.46-.34.92-.66,1.39-1a10.58,10.58,0,0,0,1.16-.94,4,4,0,0,0,1-1.8,2.44,2.44,0,0,0-3-3,14.53,14.53,0,0,0-2.37,1.09l-1.12.61-2.34,1.3c-1.27.71-2.53,1.45-3.78,2.21q-4.22,2.58-8.36,5.27c-5.95,3.84-11.93,7.64-18,11.35-3.63,2.23-7.3,4.4-11,6.57-2,1.17-4,2.39-6,3.5l-.39.22q3.78-2.61,7.59-5.16c2.43-1.64,4.91-3.21,7.35-4.83q4.55-3,9.08-6l8.68-5.81c1.4-.93,2.75-1.93,4.12-2.9,1.16-.82,2.29-1.68,3.4-2.56.79-.62,1.56-1.3,2.3-2A4,4,0,0,0,362,97.7a2.89,2.89,0,0,0-.78-1.89,2.71,2.71,0,0,0-1.88-.78Zm-165.9,8.73-.12.09.12-.09Zm17.15,5.48.05,0-.11,0,.06,0Zm-42.92,2.14,1.72-.67-4.65,2.21c-5.92,2.82-11.84,5.64-17.73,8.52s-11.75,5.79-17.64,8.64c-2.25,1.09-4.5,2.18-6.76,3.25l3.69-2.05c5.53-3.08,11.13-6,16.72-9,1-.54,2.07-1,3.1-1.52l5.14-2.48c1.19-.58,2.43-1.06,3.63-1.59l4.36-1.89c2.81-1.15,5.6-2.32,8.42-3.42Zm164.15,22-.22.16.22-.16Zm49.38,10c0,.12,0,.25-.05.37,0-.13,0-.25.05-.37ZM376,171l-.29.13L376,171Zm-9.51,1.08,0,.16,0-.16Zm.18.69.05.11s0-.07-.05-.1Zm9.87,17.86-.36.47.36-.47ZM391,173.34l.31-.39-.31.39Z"/><path class="cls-1" d="M205.05,61.21a8.44,8.44,0,0,0-1.81.29,11.77,11.77,0,0,0-1.71.74c-.5.23-1,.48-1.49.72l-3.72,1.81c-1.76.86-3.49,1.79-5.23,2.68-3.16,1.63-6.32,3.26-9.46,4.92-7.43,3.92-14.9,7.76-22.32,11.69l-2,1.06-2.85.66c-.91.21-1.82.51-2.72.78l1.49-1.08q3.52-2.57,7.18-4.92c1.32-.86,2.67-1.68,4-2.5l1.85-1.1c.65-.39,1.32-.8,2-1.15l.53-.25a2.85,2.85,0,0,0,1.31-3.21,2.89,2.89,0,0,0-3.5-2,16.19,16.19,0,0,0-3.41,1.51c-.9.47-1.79.94-2.67,1.43-.6.33-1.18.67-1.77,1-1.14.57-2.27,1.14-3.4,1.74-3.73,2-7.47,3.94-11.21,5.88s-7.32,3.8-11,5.69c-2.26,1.17-4.51,2.36-6.78,3.53a2.05,2.05,0,0,0-.29-.47,3.31,3.31,0,0,0-.78-.8l1.92-1.22c1.85-1.17,3.75-2.29,5.48-3.62a2.6,2.6,0,0,0,.95-.94,2.64,2.64,0,0,0-.95-3.6l-.62-.26a2.56,2.56,0,0,0-1.4,0,15,15,0,0,0-4.78,2l.15-.14a2.88,2.88,0,0,0-.58-4.51,2.76,2.76,0,0,0-2.21-.28,52,52,0,0,0-8.16,4.52c-1.48.89-2.94,1.8-4.4,2.73l-3.59,2.3a2.13,2.13,0,0,0,.32-.66A2.31,2.31,0,0,0,104,83.59a30.38,30.38,0,0,0-3.59,2.46c-.9.66-1.77,1.35-2.65,2S96.2,89.34,95.42,90l-.16-.1a2.66,2.66,0,0,0-2.13-.28,36.23,36.23,0,0,0-3.39,1.48l-.39.2h-.11l.43-.56a5.29,5.29,0,0,0,.55-1.15,12.66,12.66,0,0,0,.19-1.75,2.65,2.65,0,0,0-2-2.58,12.88,12.88,0,0,0-1.84-.32,7.08,7.08,0,0,0-1.84.14,21.94,21.94,0,0,0-3.43,1.15l-.22.08a2.5,2.5,0,0,0-2.53-.8A25.87,25.87,0,0,0,75,86.74l-1.19.55a2.66,2.66,0,0,0-1.73-1.62,3.75,3.75,0,0,0-1.23-.25,4.53,4.53,0,0,0-1.81.46,27.3,27.3,0,0,0-3.16,1.79c-1.23.76-2.4,1.61-3.58,2.44-1.7,1.22-3.39,2.43-5,3.71-3.09,2.41-6.17,4.84-9.17,7.37-1,.85-2,1.69-3,2.55l-1.75,1.12c-1.75,1.12-3.47,2.31-5.2,3.45l-4.93,3.27q-3.81,2.51-7.57,5.12c-2.44,1.71-4.82,3.55-7.18,5.38l0,0c-.34.26-.7.49-1,.78a4.74,4.74,0,0,0-1,1.3,3,3,0,0,0,1.07,4.09,13.16,13.16,0,0,0,1.44.64l.8.11A4.16,4.16,0,0,0,21,129a21.27,21.27,0,0,0,4-.76,77,77,0,0,0,8.34-2.93c2.05-.8,4.07-1.69,6.1-2.54l.06,0c.68.08,1.36.14,2,.17h.66l-.56.32a4.56,4.56,0,0,0-1.26,1.1,3.08,3.08,0,0,0-.79,1.35,3.18,3.18,0,0,0,0,1.62,3.08,3.08,0,0,0,.79,1.35,3.26,3.26,0,0,0,1,.69c0,.11-.09.23-.13.35a5.14,5.14,0,0,0-.14,1.47,3.11,3.11,0,0,0,3.88,3A17.78,17.78,0,0,0,49,132.39l2.55-1.33c1.25-.66,2.5-1.32,3.74-2a4.57,4.57,0,0,0,1.81,1.34,9.62,9.62,0,0,0,1.54.52,10.85,10.85,0,0,0,2.67.26,21.75,21.75,0,0,0,4-.48,32.81,32.81,0,0,0,3.92-1.05l.89-.29c-.24.33-.48.68-.69,1a3.76,3.76,0,0,0-.67,2.86,2.39,2.39,0,0,0,.68,1.06,1.71,1.71,0,0,0,.26.21,2.54,2.54,0,0,0,.32,1,3.81,3.81,0,0,0,1.52,1.38,5.77,5.77,0,0,0,1.58.53,1.18,1.18,0,0,0-.13.18,2.61,2.61,0,0,0-.4,1,2.65,2.65,0,0,0,0,1.12,2.24,2.24,0,0,0,1.91,1.56,8,8,0,0,0,2.88-.15,6.18,6.18,0,0,0,.62-.12l-.52.48-1.89,1.76-1.17,1.08c-.34.3-.68.59-1,.92a8.4,8.4,0,0,0-1,1.41,3.21,3.21,0,0,0,.5,3.88,11.36,11.36,0,0,0,1.41,1.07,5.33,5.33,0,0,0,2.2.51l.59,0,.3,0a3,3,0,0,0,.07.78l.09.42a2.63,2.63,0,0,0,.68,1.16,2.24,2.24,0,0,0,.79.74,4.34,4.34,0,0,0,1,.38,6.55,6.55,0,0,0,3.36-.38,25.24,25.24,0,0,0,3.49-1.31c2.7-1.18,5.31-2.54,7.92-3.9l2.84-1.52a5.24,5.24,0,0,0,1,.3,10.66,10.66,0,0,0,1.87.26,8.11,8.11,0,0,0,1.84-.08,22,22,0,0,0,2.79-.5,45.85,45.85,0,0,0,7.57-2.79c2.41-1,4.75-2.19,7.1-3.35,2-1,3.93-2,5.88-3,2.1-1.08,4.17-2.2,6.25-3.3l-2.42,3c-1.11,1.36-2.17,2.73-3.24,4.12-.78,1-1.49,2.06-2.22,3.1a8.87,8.87,0,0,0-1,2,3.29,3.29,0,0,0-.35,1.55,3.46,3.46,0,0,0,0,.91,3.81,3.81,0,0,0,1.08,2.59,3.63,3.63,0,0,0,1.62.94,3.75,3.75,0,0,0,1.94,0,5.58,5.58,0,0,0,1.74-.58l.71-.32,1.18-.57,2.78-1.36c1.8-.89,3.58-1.81,5.36-2.72l2.1-1.1c.5-.17,1-.34,1.47-.52,1.82-.66,3.62-1.39,5.38-2.2l6.89-3.13c3.61-1.65,7.13-3.53,10.67-5.33,1.29-.65,2.55-1.35,3.82-2l6.52-3.48h.41a13.84,13.84,0,0,0,2-.29c.6-.11,1.2-.25,1.79-.4.38-.09.74-.2,1.11-.32L179,131.64c-1,.81-1.92,1.66-2.85,2.53a25.69,25.69,0,0,0-2.27,2.4l-.77,1a6.12,6.12,0,0,0-.87,1.56,6,6,0,0,0-.44,2.51,3.4,3.4,0,0,0,.22,1.14,4.89,4.89,0,0,0,1,1.65c.32.27.65.52,1,.77a10.4,10.4,0,0,0,1.65.79,12.57,12.57,0,0,0,3.1.58,16.73,16.73,0,0,0,3.16-.14,28.42,28.42,0,0,0,3.3-.56,68.18,68.18,0,0,0,6.86-2c4.18-1.43,8.22-3.26,12.28-5l8.12-3.47L223.38,131l-10.5,7.1c-1.5,1-3,2-4.46,3.06s-3.13,2.32-4.7,3.46a8.84,8.84,0,0,0-2.59,2.47,4.42,4.42,0,0,0-.59,2.07,4.35,4.35,0,0,0,.56,2.08,6.13,6.13,0,0,0,1,1.25l.72.55,1.33.57a16,16,0,0,0,2.08.26,14.38,14.38,0,0,0,2.45-.13,35.92,35.92,0,0,0,8-2c2.9-1,5.74-2.26,8.54-3.52,1.61-.73,3.24-1.46,4.8-2.29l3.11-1.65a3.73,3.73,0,0,0,.09.46,5.31,5.31,0,0,0,.52,1.24,3.64,3.64,0,0,0,.21,3,7.46,7.46,0,0,0,1,1.38,3.92,3.92,0,0,0,1.93,1,5.44,5.44,0,0,0,1.89.13,15.93,15.93,0,0,0,1.94-.29,38.57,38.57,0,0,0,8.29-2.74c2.86-1.23,5.63-2.62,8.4-4l.18-.09a2.54,2.54,0,0,0,.34,1.46,2.82,2.82,0,0,0,1.87,1.29,8.6,8.6,0,0,0-1.31.79,3.32,3.32,0,0,0,0,5.74,3.2,3.2,0,0,0,2.56.33,12.59,12.59,0,0,0,1.61-.65c.52-.28,1-.57,1.52-.88.83-.52,1.62-1.09,2.41-1.67.31-.18.63-.35.95-.51l5.79-3.11q4.9-2.62,9.72-5.42l9-5.22a3.6,3.6,0,0,0,.67,1.88,4.69,4.69,0,0,0,1.5,1.44,12.42,12.42,0,0,0,1.54.68l.53.1a9.63,9.63,0,0,0,1.43.16,10.56,10.56,0,0,0,2-.2,25.17,25.17,0,0,0,3.66-.82c1.57-.48,3.07-1.13,4.58-1.76a88.17,88.17,0,0,0,8.63-4.48c1.5-.84,3-1.68,4.45-2.59l3.49-2.19c.66-.42,1.33-.81,2-1.25l5.83-3.93.1-.07c-.37.52-.73,1.05-1.1,1.56a51,51,0,0,0-4.95,9.13,37,37,0,0,0-1.55,4,4.79,4.79,0,0,0,0,2.32,5.6,5.6,0,0,0,1.09,1.95,4.25,4.25,0,0,0,1.85,1.2,5.41,5.41,0,0,0,2.19.21h.11c-.1.21-.2.41-.29.62-.68,1.44-1.27,2.92-1.89,4.38s-1.25,3.15-1.84,4.73c-.29.77-.56,1.56-.81,2.34a12.49,12.49,0,0,0-.92,4.44,3.82,3.82,0,0,0,.52,1.92,3.7,3.7,0,0,0,2.28,1.76,12.66,12.66,0,0,0,1.94.22,5.28,5.28,0,0,0,2.41-.69,17.85,17.85,0,0,0,3-2.2,45.26,45.26,0,0,0,5.57-5.76c2.1-2.49,4-5.12,5.95-7.76q3.58-4.94,7.09-9.91t7.07-10.19c2.05-3,4.2-5.85,6.34-8.76l-.81,1.64c-.84,1.74-1.71,3.46-2.52,5.21l-3.07,6.66c-1.54,3.36-3,6.74-4.54,10.11-1.64,3.64-3.31,7.27-4.94,10.91-.83,1.85-1.67,3.71-2.41,5.6-.37,1-.75,1.94-1.11,2.92a16.69,16.69,0,0,0-.66,2.22,5.13,5.13,0,0,0,0,2.37,3.73,3.73,0,0,0,1,1.66c.35.29.71.56,1.08.82a4.93,4.93,0,0,0,2.32.58,5.18,5.18,0,0,0,2.39-.67,15.14,15.14,0,0,0,3-2.6l.36-.42q-.81,2.35-1.63,4.69c-.6,1.76-1.11,3.55-1.68,5.32-.48,1.53-.88,3.09-1.32,4.63s-.76,2.85-1.1,4.29c-.2.81-.39,1.63-.58,2.44a12.18,12.18,0,0,0-.42,2.23,4.38,4.38,0,0,0,.51,2.48,4.65,4.65,0,0,0,1.05,1.21l.79.6a3.82,3.82,0,0,0,2,.53,4.05,4.05,0,0,0,2.74-1.13l.82-.7a7.68,7.68,0,0,0,1.18-1.24,25.85,25.85,0,0,0,2.05-3c1.3-2.19,2.43-4.45,3.58-6.72l.6-1.21a59.77,59.77,0,0,0,1.06,6.38c.14.6.29,1.19.46,1.78q-.76,4.6-1.42,9.23c-.09.64-.19,1.29-.28,1.93a27.78,27.78,0,0,0-.43,3.75,3.88,3.88,0,0,0,5.84,3.35,9.4,9.4,0,0,0,1.15-.84q.47-.57.87-1.17a14.88,14.88,0,0,0,.59-1.37c.13-.31.23-.62.33-.94.54-1.66,1.11-3.31,1.52-5,.32-1.36.64-2.71,1-4.06a9.36,9.36,0,0,0,.63-.91,27,27,0,0,0,1.6-3c.25-.52.47-1.06.69-1.59s.43-.94.6-1.43c.26-.76.52-1.51.77-2.27s.39-1.42.57-2.12a31.35,31.35,0,0,0,.78-3.71c.25-1.66.5-3.32.7-5,.11-1,.21-1.93.28-2.9.05-.74.06-1.48.06-2.23a10.39,10.39,0,0,0-.21-1.36,4.4,4.4,0,0,0-1.13-1.81,3.29,3.29,0,0,0-2.41-1h-.11c.1-.54.2-1.07.29-1.6q.47-2.53.94-5.06c.18-1,.37-2,.56-3s.33-1.76.48-2.64a22.64,22.64,0,0,0,.31-3.85,3.54,3.54,0,0,0-2.59-3.39,3.65,3.65,0,0,0-4.05,1.13,5.9,5.9,0,0,0-.82,1.19c-.44.74-.87,1.49-1.29,2.24-.54,1-1.06,1.93-1.58,2.91,0-1.16,0-2.31,0-3.47.52-1.29,1-2.59,1.55-3.88,1.16-2.91,2.26-5.84,3.39-8.76.55-1.43,1-2.87,1.55-4.3l.77-2.12c.3-.84.61-1.67.89-2.52a11,11,0,0,0,.5-3.37,3.43,3.43,0,0,0-3.44-3.44,3.64,3.64,0,0,0-2.43,1,6.81,6.81,0,0,0-1,1.11l0-.45c1.09-2.28,2.19-4.56,3.27-6.85.79-1.65,1.49-3.35,2.17-5q.56-1.43,1.08-2.85a8.91,8.91,0,0,0,.43-1.69,7.25,7.25,0,0,0,0-2.23l-.12-.9a3.36,3.36,0,0,0-.88-1.51,3.5,3.5,0,0,0-3.31-.87,4.76,4.76,0,0,0-1.69.57l-.06,0c0-1.43-.08-2.86-.21-4.28,0-.27,0-.55-.08-.82l.37-.48c.95-1.21,2-2.36,3-3.53s2.15-2.38,3.25-3.56,2.42-2.45,3.6-3.7a2.35,2.35,0,0,0,.6-2.24,2.29,2.29,0,0,0-1.61-1.61,4.2,4.2,0,0,0-1.62-.06,7.18,7.18,0,0,0-1.56.53c-1.17.56-2.36,1.1-3.51,1.7s-2.29,1.2-3.42,1.81l-.95.51h-.14c-.34-.93-.74-1.84-1.15-2.74a19.51,19.51,0,0,0-1.61-2.94,13.16,13.16,0,0,0-1-1.3,6.42,6.42,0,0,0-1.34-1,5.88,5.88,0,0,0-1.62-.66,5.13,5.13,0,0,0-2.37,0,8.49,8.49,0,0,0-3.06,1.39A13,13,0,0,0,356.49,80a35.46,35.46,0,0,0-4.2,7.07c-.9,1.84-1.72,3.72-2.55,5.59-.7,1.56-1.44,3.11-2.07,4.7-.29.72-.58,1.44-.86,2.16l-.2.14c.05-.14.11-.27.16-.41a8.86,8.86,0,0,0,.12-1,2.38,2.38,0,0,0-.33-1.22,3.25,3.25,0,0,0-2.6-1.54,7.79,7.79,0,0,0-3.1.74c-1.14.48-2.22,1.06-3.32,1.62-.55.29-1.1.58-1.65.89l-.26-.11-1.13-.16c-.85.11-1.72.21-2.57.37-1.07.21-2.14.43-3.2.66-1.92.41-3.8,1-5.67,1.53a110.5,110.5,0,0,0-11.77,4.56c-1.61.69-3.19,1.42-4.78,2.16s-3.26,1.48-4.86,2.27l-5.55,2.74c.14-.33.26-.68.39-1a3.13,3.13,0,0,0-2.18-3.82,4.76,4.76,0,0,0-1.6-.3,16,16,0,0,0-2,.35l-1.43.36c-.89.23-1.77.49-2.65.74s-1.59.49-2.37.76a4,4,0,0,0-1.88-.61,22.42,22.42,0,0,0-4.47.37c-1.94.25-3.88.56-5.81.88s-4.13.71-6.19,1.1c-1.59.3-3.17.65-4.74,1l-.46.06a14.21,14.21,0,0,0,1.61-1.39,6.12,6.12,0,0,0,1.49-2.89,3.28,3.28,0,0,0-3.12-4.1,9.94,9.94,0,0,0-2.11.13c-.58.12-1.13.29-1.7.46l-1.35.4c-1,.29-1.92.6-2.88.92-1.94.64-3.85,1.35-5.77,2.05s-3.59,1.46-5.38,2.19c-2.15.88-4.25,1.89-6.37,2.84-1.64.74-3.21,1.59-4.81,2.41l-3,1.53c-3.81.5-7.62,1-11.44,1.43,2.32-1.52,4.64-3,7-4.56,3.87-2.52,7.72-5.09,11.57-7.65,1.9-1.28,3.74-2.67,5.61-4,1.29-.93,2.57-1.87,3.83-2.84s2.35-1.9,3.52-2.85A8.57,8.57,0,0,0,249,94.93a2.93,2.93,0,0,0,.6-1.11,4.19,4.19,0,0,0,.27-1,2.78,2.78,0,0,0-2.68-3.52,14.17,14.17,0,0,0-4.51.79c-1,.3-2.07.64-3.1,1-.76.25-1.5.55-2.24.82-1.06.41-2.14.78-3.18,1.24L229,95.4l-.38-.05a2.54,2.54,0,0,0-1.28.35,33.37,33.37,0,0,0-3.44,1.83c-.85.48-1.68,1-2.52,1.49l-.54.32L218,100.8c-1.59.82-3.19,1.62-4.76,2.48L208.38,106c3.16-2.27,6.3-4.55,9.45-6.84l3.08-2.25c1-.74,2-1.56,3-2.35s2.28-1.79,3.38-2.74,2.21-2,3.29-3a4.41,4.41,0,0,0,1.13-1.86,4.2,4.2,0,0,0-.06-1.93,2.53,2.53,0,0,0-1.2-1.57,2.84,2.84,0,0,0-2-.26,7.23,7.23,0,0,0-1.44.36c-.27.09-.58.24-.86.35l-1.41.59c-1,.43-2.06.86-3.05,1.33l-3,1.47c-.88.43-1.73,1-2.59,1.42-2.26,1.25-4.48,2.55-6.69,3.88.45-.34.91-.69,1.36-1a19.68,19.68,0,0,0,2.23-2.15,2.63,2.63,0,0,0,.69-2.25,49.9,49.9,0,0,0,5.09-6.68c.32-.52.64-1,.95-1.55L226.13,74c1.36-1,2.72-2.07,4.07-3.13.7-.53,1.39-1.07,2.08-1.61l1-.74a28.53,28.53,0,0,0,2.4-2.13,2.44,2.44,0,0,0,.38-2.91,6.58,6.58,0,0,0-.87-1.17,2.83,2.83,0,0,0-1.48-.72,6.65,6.65,0,0,0-3.33.34c-1.19.32-2.35.62-3.52,1-1,.35-2,.72-3,1.12l-6.64,2.73c-1.56.64-3.09,1.32-4.63,2-1.92.84-3.85,1.65-5.75,2.53-7.32,3.43-14.63,6.87-22,10.18,1.65-1.28,3.3-2.58,4.94-3.87l4.14-3.07c1.29-1,2.64-1.84,4-2.74,1.17-.8,2.37-1.58,3.57-2.35a57.44,57.44,0,0,0,5.51-3.75,2.6,2.6,0,0,0,.68-2.56,2.66,2.66,0,0,0-2.39-1.94Zm18.31,8.1c.56-.23,1.11-.47,1.67-.69l-1.55,1.17a2.44,2.44,0,0,0-.32-.4l.2-.08ZM184.87,87q11.4-5.35,22.73-10.79c3.28-1.56,6.61-3,9.92-4.48-.29.3-.58.6-.88.89-1.21,1.16-2.39,2.31-3.64,3.41-2,1.73-4,3.38-6,5l-.28.07a55.8,55.8,0,0,0-5.78,2.78c-1,.52-2,1.06-3,1.59a2.44,2.44,0,0,0-2.18-.36,38.78,38.78,0,0,0-6.95,3.45c-1.37.81-2.7,1.65-4,2.5a2.42,2.42,0,0,0-1.39-1.14,4.2,4.2,0,0,0-1.47-.34,18.54,18.54,0,0,0-2,.22l-1.5.22,6.42-3Zm178.19-6.1.11,0-.11,0Zm.4.2.06,0,.27.15a3.71,3.71,0,0,1,.27.29,15.52,15.52,0,0,1,1.51,2.74c.35.87.65,1.75.92,2.65-.75.52-1.46,1.1-2.17,1.66l-.48.39c-2.37,1.35-4.71,2.74-7,4.17l-1.92,1.17.32-.73c.47-1.08.95-2.14,1.44-3.21a43.82,43.82,0,0,1,3.86-7A12.53,12.53,0,0,1,362,81.77a6.67,6.67,0,0,1,.8-.5l.64-.18Zm-191.13,2-1.11.81-.25-.1,1.36-.71ZM56.91,105.18q4.14-2.4,8.3-4.76l5.65-3.2c3.25-1.85,6.5-3.67,9.9-5.22-1.42,1.43-2.86,2.86-4.29,4.27-.11.11-.22.21-.32.32-1.39.7-2.78,1.39-4.15,2.12-6.75,3.59-13.47,7.28-20.33,10.66l4.14-3.5.44-.3.66-.39ZM198.48,94.1l-1.14.79L197,95c-.78.29-1.59.51-2.37.79a21.87,21.87,0,0,0-4.39,2c-1.49.94-2.95,1.92-4.48,2.81s-3.32,1.77-5,2.62c-1.3.66-2.58,1.33-3.87,2-.33.09-.62.19-1,.31l-1.45.51c-.57.2-1.13.41-1.7.63,2.86-1.7,5.73-3.37,8.59-5.06l2-1.22,1.91-.84,4.46-2q4.34-1.78,8.66-3.52Zm-44.1.32c.34.11.68.24,1,.37a17.18,17.18,0,0,1,1.88,1.06l-4.79,1.72c-1.83.65-3.61,1.44-5.42,2.16-3.66,1.46-7.28,3-10.91,4.55a4.64,4.64,0,0,0-.35-2l.94-.43c3.38-1.55,6.79-3,10.2-4.53,2.46-1,4.93-2,7.43-2.94Zm-36.81.73.56-.12-1.48.51.43-.29.49-.1Zm54.91,1c1.5-.43,3-.77,4.55-1.08-2,1.48-4.13,2.86-6.22,4.26-1.15.77-2.3,1.52-3.45,2.27-.09-.2-.17-.4-.26-.59q1.32-2,2.6-3.93l.13-.21c.88-.24,1.77-.47,2.65-.72Zm54,6.82c1.69-.83,3.37-1.72,5.09-2.5l3.59-1.62-.74.52c-1.33.94-2.66,1.88-4,2.77-3.57,2.35-7.16,4.7-10.77,7q-7.95,5.08-15.88,10.22,4.8-3.59,9.62-7.13l8.2-6.09c1-.76,2.06-1.52,3.1-2.27l1.82-.91Zm141.32-.42c0,.44,0,.89,0,1.33,0,.68-.07,1.36-.1,2,0,.11,0,.21,0,.31L367,107c-.63.71-1.28,1.41-1.88,2.15l-4,4.93c-1.54,1.92-3,3.94-4.46,5.91-2.36,3.14-4.56,6.4-6.82,9.61-2.08,3-4.18,6-6.32,8.88l-5.73,7.82c-.63.81-1.26,1.62-1.91,2.42l.15-.36c.83-1.85,1.67-3.69,2.5-5.54s1.78-3.61,2.67-5.4l.63-1.27c.41-.42.81-.85,1.21-1.28,1.89-2.05,3.66-4.2,5.45-6.34,1.06-1.25,2.1-2.5,3.11-3.79l4.37-5.65c1.35-1.74,2.57-3.59,3.83-5.41q2.22-3.2,4.41-6.44,1.74-2.33,3.5-4.63Zm-29.74.31-.12.14-.07.09.05-.15.14-.08ZM149.82,104c-4.68,3.77-9.42,7.45-14.16,11.15a3.25,3.25,0,0,0-2.76-.57,14.63,14.63,0,0,0-4.37,2.12l-3.44,2.2c-1.63,1.05-3.22,2.18-4.82,3.27l-2.07,1.18q3.48-2.76,6.93-5.58c1-.8,2-1.59,2.93-2.4s1.86-1.66,2.77-2.51c.41-.39.81-.78,1.2-1.19,1.57-.73,3.14-1.47,4.74-2.16l8.16-3.53,4.89-2Zm-18.4.81a1.72,1.72,0,0,1-.07.21,16.4,16.4,0,0,1-1.17,1.92l-5.3,2.44,1.44-1.2q1.86-1.57,3.71-3.18l.47-.22c.31,0,.61,0,.92,0Zm-.11.33c0,.12-.09.23-.14.35,0-.12.09-.23.14-.35Zm68.35.49-.89.63q-2,1.41-4.05,2.78a.75.75,0,0,0-.07-.12l5-3.29Zm-55.38,9c3-2.37,6-4.76,9-7.14l1.64-1.3c-.59.82-1.19,1.63-1.79,2.44l-2,2.64-6.94,4c-1.09.63-2.17,1.27-3.24,1.93l3.3-2.6ZM332,109.31l.94-.76-4.23,4.38c-.68.71-1.36,1.42-2.05,2.11l-.37.36-.79.66-1.33,1.09-.82.69-.44.36a6,6,0,0,0-1.07,1.28,2.65,2.65,0,0,0-.38,1.38,2.74,2.74,0,0,0,.43,1.47c-1.83,1.17-3.67,2.32-5.51,3.48-1.43.89-2.94,1.66-4.4,2.49-2.46,1.39-4.94,2.74-7.53,3.89q-1.38.56-2.79,1.05l-.54.18a91.21,91.21,0,0,1,7.05-6.27l.73-.55c1.72-1,3.43-2.09,5.12-3.18,2.28-1.46,4.56-2.92,6.82-4.43a67,67,0,0,0,6.21-4.66,15.78,15.78,0,0,0,2.22-2.33,8,8,0,0,0,.75-1.1l2-1.59Zm1.88-.16-.27.21.27-.21Zm-198.31,6.07-.15.12.15-.12Zm-35.44,4.92,7.88-4.75c-2.29,2-4.6,3.87-6.92,5.8-2.48,1.26-5,2.51-7.48,3.73l-2.53,1.22.34-.26c1.61-1.18,3.3-2.26,5-3.38l1.3-.88,2.46-1.48Zm192.23-3.41-.25.19.25-.19Zm-24.8.41.21,0c-6.24,3.19-12.34,6.64-18.43,10.11q-6.8,3.86-13.63,7.63c-1.88,1-3.8,2-5.71,3l-3.66,1.91c-2.2,1.15-4.51,2.16-6.8,3.13-1.66.69-3.32,1.37-5,2,2.16-1.52,4.34-3,6.52-4.52l11-7.57c5.24-3.6,10.52-7.16,15.73-10.8l.3-.09,4-1.2c1.82-.55,3.68-1,5.52-1.46,2.83-.73,5.67-1.4,8.53-2l1.35-.12ZM75.6,118.45l-.24.21A5.34,5.34,0,0,0,74,120.45a3.15,3.15,0,0,0-.43,1.36l-1.6.72a42.52,42.52,0,0,1-9.31,2.88l-1,.1.2-.12q.43-.19.87-.42c.57-.31,1.12-.66,1.66-1l2.72-1.57,3.39-2,5.06-2Zm-43.71.39.06,0s0,.09-.05.14a2.63,2.63,0,0,0-.09.55l-1.84.74c.63-.47,1.27-.94,1.92-1.39Zm84.37.41.77-.39-.44.37c-2.44,2-4.93,4-7.42,5.91q-8.1,6.21-16.13,12.55l-2.47,1.37c-1.58.86-3.15,1.74-4.74,2.58l.77-.74q4.16-4,8.58-7.73l9.46-8c3.88-2,7.75-4,11.62-6Zm-22.56,1c-1.53.89-3.08,1.75-4.63,2.6.48-.37,1-.73,1.46-1.09l.9-.64,2.27-.87Zm-75.61,2.07-.19.15.19-.15Zm1.68.61.11,0-.11,0Zm191.38,1.49,2.51-.28c-2,1-3.93,2-5.92,3-3.87,1.9-7.75,3.85-11.71,5.57-1.47.61-3,1.2-4.47,1.73l1.06-.69c3.3-2.14,6.62-4.27,9.9-6.44L206,125l5.12-.55Zm88.45.61-2.15,1.27q-5.62,3.28-11.27,6.55l-3.7,2.15.15-.2q8.47-4.91,17-9.77Zm-236.38.28-.25,0,.25,0Zm92.89,5a7.68,7.68,0,0,0,1.14-.23,16.79,16.79,0,0,0,1.68-.6l1.81-.73c1.38-.58,2.75-1.2,4.08-1.87l-1.66,1c-3,1.84-6.11,3.6-9.18,5.36-1.77,1-3.53,2.05-5.31,3-2,1.09-4,2.19-6,3.27-.93.51-1.9,1-2.84,1.44l-1.84.93c1.36-1.23,2.75-2.42,4.16-3.59q4.8-4,9.64-7.89l.78-.59a2.84,2.84,0,0,0,.85.38c.64.09,1.26.18,1.91.21l.8-.11Zm141.11,3.57.14.1-.14-.1Zm-222.57.65-.12.28.12-.28Zm138.39.64-.19.08.19-.08Zm-134.7,1.74a29.39,29.39,0,0,0,3.55-1.15l1.56-.58c-1.52.82-3.08,1.59-4.67,2.28a14.88,14.88,0,0,1-2.51.78q.54-.57,1.11-1.11l1-.22Zm260,8.66-.42.55.42-.55Zm-132.79,1,.38.16a1.8,1.8,0,0,1-.38-.16Zm-75.63,4.21c0,.12,0,.23,0,.35a2,2,0,0,1,0-.34Z"/><path class="cls-1" d="M257.06,108.34c-3.29.34-6.53,1-9.78,1.59-1.78.34-3.55.73-5.32,1.12l-2.51.54c-1,.21-2.1.46-3.15.64l-3.41.57c-.54.09-1.09.15-1.63.22l-1.86.26h0a11.9,11.9,0,0,1-2.31.13,10.68,10.68,0,0,1-2.13-.65c-.73-.32-1.45-.66-2.15-1a1.5,1.5,0,1,0-1.51,2.6,19.94,19.94,0,0,0,4.41,2.13c1.74.57,3.63.23,5.4,0,1-.12,1.92-.22,2.87-.38l3.21-.54c.75-.13,1.5-.31,2.25-.48s1.47-.3,2.2-.47c1.68-.39,3.36-.82,5.05-1.16,3.09-.63,6.19-1.3,9.32-1.76a52.26,52.26,0,0,1,5.73-.46,40.72,40.72,0,0,1,6.05.39c.85.13,1.69.28,2.52.48a17.76,17.76,0,0,1,2.37.78,8.58,8.58,0,0,1,3.72,2.81,10.93,10.93,0,0,1,1,1.76c.29.61.57,1.22.84,1.84l.36.87a1.64,1.64,0,0,0,.7.9,1.51,1.51,0,0,0,2.06-.54,1.4,1.4,0,0,0,.15-1.16c-.45-1.07-.91-2.13-1.38-3.19-.23-.49-.46-1-.73-1.43a10.83,10.83,0,0,0-1.18-1.58,11.93,11.93,0,0,0-2.55-2.15,15.09,15.09,0,0,0-3.43-1.53,21.21,21.21,0,0,0-3.44-.8c-1.32-.21-2.66-.37-4-.48-.92-.07-1.83-.1-2.74-.1a49.51,49.51,0,0,0-5,.28Zm10.36,3.18.36.06-.36-.06Zm-42.63,1.15.1,0-.1,0Zm48.07.23h0Z"/><path class="cls-1" d="M183.4,60.84l-.81.1a8.15,8.15,0,0,0-1.05.46l.08,0a102.17,102.17,0,0,0-13.91,7.75c-4.75,3-9.42,6.09-14.08,9.21L152,79.45c-1.65.81-3.36,1.51-5,2.25-4.8,1.93-9.63,3.85-14.59,5.31a2.5,2.5,0,0,0-1.84,2.42v.11A2.58,2.58,0,0,0,132.36,92a3.29,3.29,0,0,0,.43.09,1.68,1.68,0,0,0,0,1.77,1.74,1.74,0,0,0,2.36.62c.6-.28,1.18-.59,1.76-.9l1.77-.77,3.17-1.37-.12,0,.17-.07.17-.07-.09,0,7.37-3.08c1.09-.46,2.2-.87,3.3-1.29s2-.79,3-1.14q4-1.41,8.05-2.75c2.65-.87,5.31-1.67,8-2.48,1.74-.53,3.52-1,5.27-1.42,1.57-.41,3.16-.76,4.74-1.11-2.79,2-5.62,3.86-8.43,5.79l-3.07,2.14c-.56.39-1.1.82-1.66,1.21a7,7,0,0,0-2,1.88,3.61,3.61,0,0,0-.21,3.77,5.49,5.49,0,0,0,1.94,2,6.68,6.68,0,0,0,2.4.76,15.29,15.29,0,0,0,2.79.21,30.81,30.81,0,0,0,3.3-.36,37.06,37.06,0,0,0,5.18-1.21c1.92-.56,3.79-1.25,5.66-2,2.93-1.12,5.81-2.4,8.71-3.62,1.24-.53,2.45-1.16,3.67-1.73,1-.49,2.08-1,3.11-1.46q6.51-3.18,13-6.25l-2.59,2.21c-3.78,3.21-7.38,6.62-11,10.07l-4.49,4.37c-.65.63-1.29,1.27-1.89,1.94s-1,1.17-1.51,1.8a3.83,3.83,0,0,0-.34.67,7.2,7.2,0,0,0-.53,1.54,4.83,4.83,0,0,0,.2,2.79,5.1,5.1,0,0,0,.52,1.11,6.3,6.3,0,0,0,.95,1.18,7.81,7.81,0,0,0,1.8,1.27,16.53,16.53,0,0,0,2.21,1,3.3,3.3,0,0,0,2.62-.34,3.39,3.39,0,0,0,1.56-2,3.42,3.42,0,0,0-.34-2.62c-.18-.23-.35-.46-.53-.68a3.38,3.38,0,0,0-1.5-.88l-.14,0-.36-.18c2-2.34,4.11-4.5,6.24-6.69.76-.78,1.53-1.56,2.31-2.33,1-1,1.94-2,3-2.93,1.81-1.67,3.6-3.35,5.46-5,2.15-1.87,4.29-3.74,6.42-5.64,1.72-1.53,3.41-3.11,5.17-4.6a8.29,8.29,0,0,0,1.53-1.3,3.76,3.76,0,0,0,1-2.78,3,3,0,0,0-.84-2,3,3,0,0,0-2.78-.73,35.31,35.31,0,0,0-4.9,1.46c-1.2.44-2.41.86-3.59,1.35-1.35.56-2.71,1.1-4.05,1.7l-4,1.83c-4.63,2.11-9.19,4.37-13.79,6.53-1.75.82-3.48,1.68-5.25,2.44L187.22,86a59.4,59.4,0,0,1-12.74,3.85l-.64,0c3.12-2.35,6.35-4.56,9.56-6.8,1.68-1.18,3.33-2.41,5-3.63,1.12-.82,2.21-1.68,3.27-2.57.49-.42,1-.84,1.44-1.29l1.12-.18a18.26,18.26,0,0,1,3.91,0,37.34,37.34,0,0,1,5.17,1.42,1.49,1.49,0,1,0,.79-2.87,40.39,40.39,0,0,0-5-1.39,17.32,17.32,0,0,0-3.6-.27.61.61,0,0,0,.05-.12,3.06,3.06,0,0,0-.14-2.51A3.59,3.59,0,0,0,194,68.32l-.62-.26c-.35,0-.7-.11-1.06-.15s-1,.12-1.5.19l.32,0a83,83,0,0,0-8.42,1.67c-1.23.3-2.47.56-3.69.91l-4.47,1.29c1-.59,2-1.18,3-1.82L180.71,68c.47-.31.92-.63,1.37-1s1.13-.84,1.67-1.29a14.3,14.3,0,0,0,1.31-1.27,2.05,2.05,0,0,0,0-2.87,2.28,2.28,0,0,0-1.55-.81ZM170.64,89.55l.23.18a2,2,0,0,1-.23-.18Zm29.22,12.14.17.21-.17-.21Zm.19.07,0,.1a1,1,0,0,1,0-.1ZM141.87,91.43l-.05,0,.13,0-.08,0Z"/><path class="cls-1" d="M200.91,239a3.72,3.72,0,0,0-2.31,1.77c-.2.45-.4.89-.58,1.35a6.23,6.23,0,0,0-.28,1.55,9.18,9.18,0,0,0,.22,2.39,19.22,19.22,0,0,0,.65,2.17,29.09,29.09,0,0,0,3,6.34,26.34,26.34,0,0,0,3,3.77,18.33,18.33,0,0,0,1.64,1.54h-1.51c-1.38,0-2.75-.12-4.13-.22-1.12-.07-2.24-.23-3.36-.36s-2.35-.33-3.51-.57c-1.55-.33-3.08-.66-4.61-1.08-2.89-.78-5.72-1.7-8.55-2.67-2.67-.9-5.32-1.87-8-2.78-1.52-.51-3-1-4.58-1.46-1.89-.57-3.79-1.08-5.63-1.79a7.12,7.12,0,0,1-1-.55,6,6,0,0,1-.3-.56c.07.15.13.3.19.45-.14-.32-.27-.65-.4-1a2,2,0,0,0-.87-1.12,1.88,1.88,0,0,0-2.76,2.12c.2.47.38.95.6,1.41a4.35,4.35,0,0,0,1.27,1.7,10,10,0,0,0,2.44,1.3c.88.36,1.76.7,2.67,1l4.88,1.64c1.3.45,2.58,1,3.86,1.48l4.72,1.86c2.85,1.11,5.7,2.26,8.61,3.19,1.62.52,3.22,1,4.86,1.45s3.24.75,4.88,1.07c2.2.45,4.43.71,6.65,1a38.94,38.94,0,0,0,5.81.3c2-.05,4.1-.06,6.13-.29.79-.09,1.58-.2,2.36-.35a4,4,0,0,0,2-1.08,3.42,3.42,0,0,0,1-3.4,9.16,9.16,0,0,0-.4-1c-.21-.29-.43-.57-.67-.85s-.67-.53-1-.77a7.85,7.85,0,0,0-.88-.42c-.7-.32-1.42-.59-2.14-.87a15.69,15.69,0,0,1-2.53-1.49,21.64,21.64,0,0,1-2.94-3,23.13,23.13,0,0,1-2.34-4c-.27-.69-.52-1.4-.78-2.11a22.28,22.28,0,0,1-.66-2.15,2.56,2.56,0,0,1,.11-.24,3.85,3.85,0,0,0-1.77-4.35,3.9,3.9,0,0,0-2-.53,3.85,3.85,0,0,0-1,.14Zm4.5,5.48,0,.22,0-.22Z"/><path class="cls-1" d="M138.56,154.35a2.5,2.5,0,0,0-1,.58,1.91,1.91,0,0,0-.5,1.13,3.9,3.9,0,0,0,.65,2.49,14.88,14.88,0,0,0,2.17,2.83,30.13,30.13,0,0,0,4.09,3.73l2.08,1.58c.73.56,1.53,1.05,2.3,1.57s1.47.89,2.2,1.33,1.5.87,2.25,1.3c6.13,3.52,12.83,6,19.41,8.52a54.93,54.93,0,0,0,6,2l.45.11a35.9,35.9,0,0,1-3.27,1.67,86.37,86.37,0,0,1-11.16,3.25c-3.21.79-6.35,1.86-9.46,3s-6.4,2.5-9.61,3.73c-1.45.56-2.89,1.12-4.36,1.61-.68.23-1.36.44-2,.65a16.29,16.29,0,0,0-3.64,1.3,4.74,4.74,0,0,0-.95,7.37l.27.26a4.75,4.75,0,0,0,2.07,1.2,9.55,9.55,0,0,0,1.4.35c1.26.24,2.55.32,3.82.48l3.44.44,5.7.69a4.36,4.36,0,0,0,2.23-.6,4.41,4.41,0,0,0,1.58-6,4.61,4.61,0,0,0-2.16-1.9l3.18-1.42c2.75-1.08,5.51-2.13,8.33-3,1.54-.5,3.09-.94,4.65-1.37,1.31-.37,2.64-.72,3.93-1.15a52.82,52.82,0,0,0,7.8-3.2,44.49,44.49,0,0,0,5.43-3.61c.65-.47,1.29-1,1.9-1.51a5.47,5.47,0,0,0,1.11-1.3L189,182a3.36,3.36,0,0,0,.46-1.7,2.65,2.65,0,0,0-.06-1.31,4.78,4.78,0,0,0-1.09-1.75,4.23,4.23,0,0,0-3.13-1.07c-1.28-.09-2.54-.17-3.81-.31a44.88,44.88,0,0,1-5.59-1.31c-2.1-.63-4.17-1.36-6.25-2.06-3.81-1.28-7.56-2.73-11.27-4.29-2.54-1.16-5-2.38-7.52-3.67a32.72,32.72,0,0,1-3.06-1.85c-1.12-.75-2.2-1.53-3.28-2.34a32,32,0,0,1-3-2.81,1.6,1.6,0,0,0,.62-.9,1.69,1.69,0,0,0-1.18-2.08,8.21,8.21,0,0,0-1.66-.25,2.36,2.36,0,0,0-.65.08Z"/><path class="cls-1" d="M180.87,72.37c-2.54.17-5.09.36-7.63.57s-5.31.61-7.94,1.09c-2.44.46-4.86,1-7.26,1.68-1.85.51-3.73,1-5.54,1.68-3.43,1.22-6.88,2.37-10.26,3.72-3.57,1.44-7.16,2.85-10.69,4.4s-6.91,3-10.33,4.62c-6.79,3.2-13.57,6.43-20.25,9.86-6.91,3.55-13.85,7.05-20.85,10.41-3,1.45-6.09,2.8-9.15,4.17-2.16.9-4.31,1.81-6.49,2.65l-2.11.79c.17-.3.35-.6.52-.91.86-1.52,1.67-3,2.39-4.65a22.1,22.1,0,0,0,1.25-3.35,10.33,10.33,0,0,0,.28-3.87,7.14,7.14,0,0,0-1.1-3.07,3.91,3.91,0,0,0-.3-.41c1-1.61,2.09-3.22,3.06-4.88q.7-1.2,1.38-2.4l.44-.79a8.36,8.36,0,0,0,.74-1.5c0-.13.08-.27.12-.41a2.24,2.24,0,0,0,0-1.15,2.82,2.82,0,0,0-.77-1.55,3.31,3.31,0,0,0-2.8-.7,12.71,12.71,0,0,0-3,.81,42.42,42.42,0,0,0-4.85,2.21c-3.23,1.7-6.44,3.41-9.66,5.13-6.08,3.24-12.12,6.55-18.26,9.64-2.81,1.41-5.65,2.73-8.48,4.08-1.41.67-2.8,1.37-4.2,2.05-.66.33-1.33.64-2,1a5.51,5.51,0,0,0-1.78,1,3.33,3.33,0,0,0-.83,1.34,3,3,0,0,0,.06,1.64,2.81,2.81,0,0,0,.71,1.21,2.92,2.92,0,0,0,1.94.8,9.38,9.38,0,0,0,3.31-.54c1.41-.41,2.79-.94,4.17-1.46,1.08-.41,2.14-.86,3.21-1.28,2.12-.85,4.21-1.8,6.3-2.73l5.57-2.53c1.56-.71,3.15-1.37,4.72-2l2.52-.95c.66-.25,1.32-.53,2-.74l3.3-1a36.6,36.6,0,0,1,5-1.1l.48,0q-1.71,2.59-3.37,5.24c-.78,1.24-1.51,2.51-2.19,3.8-.54,1-1,2.11-1.43,3.19a9.72,9.72,0,0,0-.7,3.81,3.72,3.72,0,0,0,.41,1.64,6.5,6.5,0,0,0,.88,1.2,3.14,3.14,0,0,0,1.35.82,4.29,4.29,0,0,0,.6.13,40.15,40.15,0,0,0-1.74,4.37,8,8,0,0,0-.31,1.19,11.26,11.26,0,0,0-.27,1.82,7.53,7.53,0,0,0,.54,3.25,6,6,0,0,0,1.57,2.39,8.48,8.48,0,0,0,2.39,1.62,14.37,14.37,0,0,0,6,1.26,26.16,26.16,0,0,0,6.47-.78,61.31,61.31,0,0,0,6.91-2c1.67-.57,3.29-1.23,4.93-1.88,1.42-.55,2.85-1.09,4.26-1.67l.12-.05.1,0-.09,0,.44-.19h0l6.67-2.82.11,0,.43-.18L95,129.67c1.24-.49,2.45-1,3.7-1.49,2.47-.9,4.92-1.87,7.43-2.67L111,124c1.27-.4,2.57-.7,3.85-1,2.43-.64,4.89-1.09,7.37-1.49l.73-.08a20.19,20.19,0,0,1-1.27,1.94c-1.88,2.34-4,4.51-6,6.71-1.26,1.36-2.54,2.71-3.81,4.06-2.37,2.52-4.85,4.93-7.24,7.43a53.58,53.58,0,0,0-3.79,4.31c-.46.59-.93,1.18-1.38,1.78a6.1,6.1,0,0,0-.68,1.49,4,4,0,0,0-.21,1.58,4.61,4.61,0,0,0,.64,2,4.93,4.93,0,0,0,1.51,1.54,7.62,7.62,0,0,0,4.06,1.23,13.71,13.71,0,0,0,3.67-.32,21.71,21.71,0,0,0,3.44-1c1.25-.43,2.46-1,3.66-1.5,1.41-.6,2.79-1.23,4.16-1.89,2.34-1.13,4.61-2.38,6.91-3.61,2.83-1.52,5.65-3.07,8.47-4.62,2.48-1.36,5-2.72,7.5-4,3-1.54,6.07-3.08,9.12-4.57,1.31-.64,2.62-1.3,4-1.9l4.79-2.16,8.37-3.35,2.17-.85c-1.19,1.15-2.41,2.27-3.62,3.39l-4,3.65q-4.26,3.88-8.55,7.74c-1.25,1.11-2.49,2.23-3.75,3.34l-2,1.73c-1.22,1.06-2.8,2.14-2.8,4a4.08,4.08,0,0,0,.5,1.87,3.91,3.91,0,0,0,1.33,1.38l.42.19a2.78,2.78,0,0,0,1.25.39,9.09,9.09,0,0,0,1.88.11,16.57,16.57,0,0,0,3.68-.62c1.39-.36,2.75-.82,4.1-1.31,2.49-.92,4.92-2,7.37-3,6.75-2.8,13.32-6,19.88-9.18,3.51-1.71,7-3.44,10.56-5.07,1.62-.75,3.23-1.55,4.87-2.25l6.32-2.7.78-.33c3-1.22,5.91-2.45,8.89-3.61,1.52-.6,3-1.23,4.57-1.78l5.6-2c1.59-.57,3.21-1,4.81-1.58s3.16-1,4.75-1.43c2.43-.67,4.88-1.32,7.36-1.81a3.2,3.2,0,0,0,.58.82,4.05,4.05,0,0,0,3.62.86,12.13,12.13,0,0,0,3.37-1.25,49,49,0,0,0,7.16-4.81,49,49,0,0,0,6.62-5.85c2.49-.52,5-1,7.51-1.46,1.44-.27,2.88-.52,4.32-.77,1.16-.2,2.33-.35,3.49-.51l.68-.07-.16.12q-1.54,1.15-3.12,2.28c-1.57,1.13-3.18,2.22-4.67,3.47a7,7,0,0,0-1.65,1.93,4.53,4.53,0,0,0-.09,4.41,8.37,8.37,0,0,0,1,1.4c.35.28.7.55,1.06.8l.47.24c.42.18.84.36,1.27.51a13.28,13.28,0,0,0,3,.62c1,.13,1.93.21,2.91.26a48.58,48.58,0,0,0,6.27-.15c3.39-.27,6.76-.77,10.12-1.24,3-.42,6-.87,9-1.32,3.69-.5,7.38-1,11.09-1.33,1.71-.15,3.41-.25,5.12-.34-2.56,1.69-5.22,3.23-7.86,4.78-1.64,1-3.37,1.84-5.05,2.75s-3.25,1.72-4.87,2.57c-6.21,3.27-12.52,6.34-18.86,9.36a15.84,15.84,0,0,0-2,1.07,3.92,3.92,0,0,0-1.9,3.31,3.79,3.79,0,0,0,1.9,3.3,5.4,5.4,0,0,0,4.78.46A46.2,46.2,0,0,0,295.6,141c1.43-.61,2.84-1.27,4.27-1.91l7.27-3.33,7.05-3.23,2.45-1.09a6.12,6.12,0,0,0-.52.92,3.21,3.21,0,0,0-.32,2.37,3.17,3.17,0,0,0,.8,1.37,3.11,3.11,0,0,0,1.36.79,5.08,5.08,0,0,0,2.34.4,10.4,10.4,0,0,0,2.85-.73,43.63,43.63,0,0,0,5.62-2.55c2.13-1.12,4.17-2.41,6.22-3.67,2.28-1.41,4.51-2.93,6.64-4.55,2.52-1.91,5-3.8,7.52-5.75l1.76-1.37.15-.12c1.26-.63,2.54-1.24,3.84-1.81a23.21,23.21,0,0,0,2.38-1.09,3.19,3.19,0,0,0-2.46-5.83c-1.5.37-3,.82-4.46,1.27l-.86.11a7.58,7.58,0,0,0-.8.28l-1.44.49c-.27.09-.53.2-.79.3l-2.25.73q-5.28,1.77-10.54,3.65l-.88.32a7.61,7.61,0,0,0,.92-1.15,10.28,10.28,0,0,0,.83-1.74l.12-.86a3.29,3.29,0,0,0-.08-1.36,4,4,0,0,0-1-1.65l-.86-.68a5.4,5.4,0,0,0-2.16-.56c-.51-.06-1-.08-1.53-.09-.82,0-1.64,0-2.46,0-1.69.06-3.38.14-5.06.23s-3.22.19-4.82.37c-3.57.42-7.16.81-10.73,1.34q-5,.73-10,1.42c-5.26.66-10.52,1.37-15.83.84h0c1.28-1,2.56-2,3.83-2.94l-.61.47c1.63-1.25,3.23-2.51,4.81-3.81.94-.78,1.85-1.58,2.73-2.43a12.23,12.23,0,0,0,1.19-1.48c.1-.24.2-.47.29-.7a2.58,2.58,0,0,0,.29-1.25,3.78,3.78,0,0,0-.45-1.74A3.38,3.38,0,0,0,291,97.92a5,5,0,0,0-1.27-.46,8,8,0,0,0-1.62-.14,78.63,78.63,0,0,0-11.15.94q-4.07.63-8.11,1.37c-1-1.93-3.42-2.59-5.43-2.86-4.49-.59-9,.32-13.34,1.46a76.89,76.89,0,0,0-11.25,3.84,7.88,7.88,0,0,0-1.46.71,5.58,5.58,0,0,0-1.61,1.84,3.12,3.12,0,0,0,.49,3.77l.61.61a4.8,4.8,0,0,0,1.73,1,10.87,10.87,0,0,0,2.78.54,28,28,0,0,0,6.07-.27c2.45-.29,4.88-.76,7.29-1.24a41.66,41.66,0,0,1-4.3,2.8,2,2,0,0,0-.76-.63,4.41,4.41,0,0,0-1.71-.51,7.62,7.62,0,0,0-1.17,0c-.72.07-1.43.17-2.14.27-1.72.24-3.43.6-5.12,1-3.49.8-6.92,1.83-10.32,2.9s-6.75,2.19-10.06,3.45q-5.76,2.19-11.47,4.49c-6.8,2.73-13.49,5.72-20.08,8.91l-11,5.34c-3.16,1.52-6.36,3-9.55,4.42l-5.16,2.17c-1,.42-2,.82-3,1.22l-1.1.43,1.86-1.74c2.82-2.62,5.66-5.23,8.49-7.84l4-3.67,2.52-2.36a35.91,35.91,0,0,0,5.22-6l.28-.43a11.74,11.74,0,0,0,.49-1.09,3.79,3.79,0,0,0,.07-1.89,4,4,0,0,0-.82-1.57,3.25,3.25,0,0,0-1.47-1,6.44,6.44,0,0,0-3.62.44c-.52.17-1.05.35-1.58.51-1.82.59-3.61,1.28-5.41,1.93q-2.26.82-4.5,1.71c-1.91.74-3.85,1.44-5.73,2.26l-5.68,2.48c-1.85.8-3.66,1.73-5.48,2.59-6.69,3.17-13.24,6.65-19.76,10.14l-4.77,2.52-3.05,1.6c-2.18,1.15-4.44,2.14-6.7,3.1a27.5,27.5,0,0,1-5.93,1.83h0l.23-.33-.25.33h0c.43-.56.85-1.14,1.32-1.66.69-.79,1.39-1.57,2.09-2.35,1.09-1.23,2.25-2.4,3.38-3.6q3.9-4.18,7.77-8.44a60.71,60.71,0,0,0,6.89-8.3,13.21,13.21,0,0,0,1.41-3.11c0-.17.05-.34.08-.51a3.62,3.62,0,0,0,.08-1.23,4.38,4.38,0,0,0-.5-1.91l-.22-.4a2.79,2.79,0,0,0-1-1,5.11,5.11,0,0,0-1.31-.63,6.2,6.2,0,0,0-2.68-.14,54.22,54.22,0,0,0-5.82.78l-3,.59c-1,.2-2,.52-2.92.77s-2.1.55-3.14.88L104,120.11c-1.16.37-2.3.84-3.46,1.26s-2.31.8-3.44,1.26c-2.45,1-4.92,2-7.36,3a2.58,2.58,0,0,0-.67.28h0l-6.79,2.9a2.55,2.55,0,0,0-.54.22c-5.9,2.35-11.78,4.92-18.09,5.93a19.77,19.77,0,0,1-4.07,0,11.18,11.18,0,0,1-1.72-.46,8.84,8.84,0,0,1-.95-.53,4.26,4.26,0,0,1-.43-.42,2.68,2.68,0,0,1-.18-.33,4,4,0,0,1-.15-.49,8.84,8.84,0,0,1,0-1.26,23,23,0,0,1,1.35-4.21c.56-1.3,1.18-2.57,1.84-3.83l.23-.08,2.69-1c1-.36,2-.81,2.93-1.21,1.79-.74,3.55-1.51,5.31-2.28,6.47-2.83,12.8-6,19.08-9.21,6.72-3.47,13.38-7,20.13-10.43,2-1,4-2,6-3l7.85-3.76c3.93-1.89,7.93-3.62,11.92-5.39,3.62-1.48,7.22-3,10.9-4.36l7.05-2.53c1.17-.42,2.38-.75,3.56-1.1,1.38-.42,2.77-.79,4.17-1.14a83.58,83.58,0,0,1,9-1.74c3.54-.43,7.1-.65,10.65-.89a1.48,1.48,0,0,0,.08-3ZM65.26,93.45q-2,3.18-4.08,6.28c-.38,0-.76,0-1.14,0a30.31,30.31,0,0,0-3.81.21,34.48,34.48,0,0,0-5,.92l6.72-3.65c2.37-1.28,4.76-2.59,7.24-3.67l.1,0Zm-5.54,17c.77-1.22,1.55-2.42,2.34-3.62,0,.1,0,.19,0,.29a14.49,14.49,0,0,1-.75,2.59,75,75,0,0,1-3.61,6.81c-.69,1.2-1.37,2.41-2,3.63l-.82.18h-.13a11.08,11.08,0,0,1,.52-1.85,63.41,63.41,0,0,1,4.52-8Zm218.08,1.89.16.12-.16-.12ZM54.23,120.17l.12.16h0l-.11-.16Zm1.9,12.66,0,.07h0l0-.07Zm0,.1,0,.11,0-.11ZM104,148.62l.16.12-.16-.12ZM83.74,134.38l.37-.16-.37.16Z"/><path class="cls-1" d="M173.27,65.41c-.43.08-.85.25-1.27.37a46.92,46.92,0,0,0-6.65,2.73c-2.22,1.06-4.39,2.2-6.56,3.34-2.95,1.54-5.87,3.15-8.79,4.75-2.67,1.47-5.33,2.94-8,4.39-2.84,1.54-5.71,3-8.47,4.7s-5.67,3.45-8.44,5.26l-1.11.72a5.6,5.6,0,0,0-2,1.88,2.75,2.75,0,0,0,.48,3.2,3.4,3.4,0,0,0,1.32.86,4.88,4.88,0,0,0,1.89.22,16.47,16.47,0,0,0,4.42-1,2.42,2.42,0,0,0,2.75,1.05,25.29,25.29,0,0,0,4.83-2.33c.88-.55,1.76-1.1,2.65-1.64,1.37-.86,2.72-1.76,4.07-2.65,2.52-1.66,5-3.34,7.47-5.1L155,84l2.2-1.34c-.31.32-.61.64-.91,1A13.89,13.89,0,0,0,155,85.2a3.44,3.44,0,0,0-.42.86l-.2.17c-1.27,1.12-2.47,2.33-3.71,3.49-1.08,1-2.09,2.11-3.11,3.19l-1.64,1.71c-.52.55-1,1.17-1.48,1.75l-1.8,2.12c-.54.63-1,1.33-1.52,2l-1.47,1.93c-.58.75-1.06,1.59-1.58,2.38a29.34,29.34,0,0,0-2.1,3.7,5.27,5.27,0,0,0,1.4,6.47,8.36,8.36,0,0,0,2.63,1.53,16,16,0,0,0,2.74.82,31.91,31.91,0,0,0,7,.53A63.3,63.3,0,0,0,164,115.51c6.92-1.78,13.71-4.05,20.51-6.23,1.77-.56,3.54-1.08,5.31-1.62s3.79-1,5.69-1.53,3.85-.87,5.78-1.29c1.62-.35,3.27-.54,4.91-.77l3.75-.32a36,36,0,0,1,7.33.19,8.11,8.11,0,0,1,1.1.3l.09.05c.16.15.31.3.45.46a2.71,2.71,0,0,1,.21.37,8.78,8.78,0,0,1,.29,1,9.09,9.09,0,0,1,0,1.38,14.61,14.61,0,0,1-.78,2.75,38.53,38.53,0,0,1-4.48,7.16c-2.4,3.06-4.94,6-7.43,9l-2.4.86c-1.44.52-2.87,1.07-4.32,1.55-6.58,2.22-13.16,4.41-19.72,6.67-2.77,1-5.55,1.93-8.3,2.94-3.18,1.16-6.33,2.38-9.49,3.59l-1.8.68a13.32,13.32,0,0,0-3.26,1.4,2.93,2.93,0,0,0,.7,5.35,6.17,6.17,0,0,0,1.51.24c.62,0,1.23-.13,1.85-.22s1.2-.23,1.8-.37l3.15-.74c1.57-.36,3.1-.86,4.65-1.3q4.19-1.23,8.33-2.58,5.22-1.68,10.41-3.39l3.86-1.23,2.3-.74c-.26.31-.51.61-.78.91l-.8,1a5,5,0,0,0-1.53,3,3.57,3.57,0,0,0,.09,1,9.22,9.22,0,0,0-1.49.55,2.9,2.9,0,0,0-1.39,1.8,3.08,3.08,0,0,0,.78,2.93,3.77,3.77,0,0,0,1.32,1,7,7,0,0,0,1.59.5c1.12.21,2.25.35,3.39.46a57,57,0,0,0,7.39.16A75.57,75.57,0,0,0,216.1,151l6.11-1.2c1.48-.29,2.95-.71,4.41-1.08A186.81,186.81,0,0,0,245,143.06c4.33-1.56,8.64-3.18,12.93-4.83l-.63.42q-3.84,2.52-7.5,5.3a45.93,45.93,0,0,0-5.55,4.56,5,5,0,0,0-1.53,3.29,4.5,4.5,0,0,0,1.22,3.28,7,7,0,0,0,2.86,1.83,15.16,15.16,0,0,0,3.72.62,19.08,19.08,0,0,0,3.78-.27c1.12-.16,2.23-.36,3.34-.6a53.49,53.49,0,0,0,6.77-2.09c2.8-1,5.54-2.2,8.24-3.44l5.75-2.65c1.16-.53,2.27-1.17,3.4-1.76l4.8-2.52c1.45-.76,2.85-1.62,4.27-2.43,5.77-3.29,11.46-6.71,17.16-10.11q2.13-1.28,4.24-2.57c-1.37,1.38-2.7,2.78-4,4.2-.58.62-1.14,1.25-1.71,1.88a6.26,6.26,0,0,0-1.94,4,5.07,5.07,0,0,0,2.28,4.37c2.19,1.45,4.94,1,7.26.18a36.59,36.59,0,0,0,6.64-3.28c2.06-1.24,4-2.66,5.92-4.07,1.37-1,2.71-2,4-3.08l2.64-2.12c.38-.3.78-.6,1.14-.92l4.41-4c1-.92,2-1.89,3-2.85l1.61-1.56a39.1,39.1,0,0,0-2.3,6.74,21.26,21.26,0,0,0-.59,7,16.44,16.44,0,0,0,1.52,5.69,10.1,10.1,0,0,0,1.38,2,9.11,9.11,0,0,0,1.6,1.34,10,10,0,0,0,1.21.73,18.17,18.17,0,0,0,3.41,1.27,17.31,17.31,0,0,0,8.19-.05,13.6,13.6,0,0,0,1.51-.43c-.65,1.27-1.29,2.54-1.95,3.8-1.46,2.82-2.92,5.66-4.55,8.39s-3.32,5.56-5,8.31c-1.11,1.82-2.23,3.64-3.3,5.48-.54.92-1.06,1.83-1.56,2.76a20.11,20.11,0,0,0-1,2.32c-.1.24-.2.49-.28.74-.07.46-.12.92-.17,1.38a3.88,3.88,0,0,0,.53,2,4.86,4.86,0,0,0,1.05,1.44c1.37,1.39,3.5,1.47,5.29,1.15a16.21,16.21,0,0,0,4.17-1.63,28,28,0,0,0,3.58-2.21c1.16-.78,2.27-1.66,3.38-2.51l5.29-4.09c1.67-1.27,3.33-2.56,5-3.79l3.53-2.54a41,41,0,0,1,7.28-4.23l.81-.32v.07a26.33,26.33,0,0,1-1.61,5.13c-1.13,2.55-2.48,5-3.76,7.48-.57,1.13-1.18,2.25-1.71,3.4q-1.06,2.33-2,4.68c-.2.51-.4,1-.58,1.52-.12.35-.24.7-.35,1a7.09,7.09,0,0,0-.18,3.36,5.41,5.41,0,0,0,5.08,4.14c2.15.09,4-1.14,5.52-2.51a16.08,16.08,0,0,0,2-2.42,17.1,17.1,0,0,0,1.3-2.07c.38-.69.75-1.38,1.11-2.09a13.56,13.56,0,0,0,1.52-4.15,2.85,2.85,0,0,0-.31-2.26,3,3,0,0,0-1.77-1.36,3,3,0,0,0-2.28.29l-.13.08c.57-1.18,1.15-2.37,1.71-3.56a34.73,34.73,0,0,0,3.37-9.72,16.77,16.77,0,0,0,.2-2,8.82,8.82,0,0,0-.2-1.92,6.65,6.65,0,0,0-.57-1.77,5.35,5.35,0,0,0-1-1.44,9,9,0,0,0-1.35-1,5,5,0,0,0-2.14-.58,9.5,9.5,0,0,0-3.38.5,27,27,0,0,0-3.52,1.32c-1,.43-1.94.9-2.89,1.4a41.18,41.18,0,0,0-4.18,2.62c-1.33.94-2.69,1.85-4,2.82q-4.37,3.24-8.67,6.53c-1.09.83-2.18,1.66-3.29,2.46l.58-1q2.53-4.22,5-8.47c1.54-2.63,3-5.33,4.37-8s2.8-5.63,4.27-8.41c1.8-3.39,3.58-6.78,5.7-10a3.89,3.89,0,0,0-.62-4.73,3.91,3.91,0,0,0-4.73-.61c-1.21.85-2.46,1.65-3.72,2.44a51.44,51.44,0,0,1-5.89,3.29,19.63,19.63,0,0,1-3.39,1,7.51,7.51,0,0,1-4.2-.55c-.22-.11-.43-.23-.64-.36l0,0a14.48,14.48,0,0,1-.57-2.05,15.51,15.51,0,0,1,0-2.64,33.94,33.94,0,0,1,2.06-7.12c1.07-2.41,2.32-4.69,3.61-7,.78-1.4,1.65-2.74,2.51-4.1s1.81-2.73,2.74-4.08c.26-.38.5-.76.75-1.14a18.5,18.5,0,0,0,1.57-3.07,5.79,5.79,0,0,0,.43-1.93,5.87,5.87,0,0,0-.2-1.91,5.49,5.49,0,0,0-1.31-2.18,4.77,4.77,0,0,0-3.34-1.3c-2.2,0-3.91,1.44-5.55,2.72-.67.53-1.33,1.08-2,1.63-1.23,1-2.4,2.12-3.58,3.2-2.38,2.2-4.7,4.47-7,6.76-2.58,2.56-5.15,5.14-7.86,7.57l-2.91,2.6c-.47.43-.94.87-1.44,1.27l-1.78,1.43a28.51,28.51,0,0,0,4.66-5.74,4.55,4.55,0,0,0,.19-4.84,4.26,4.26,0,0,0-2.39-1.79,3.55,3.55,0,0,0-1.94,0,5,5,0,0,0-1.24.44c-3.18,1.31-6.26,2.9-9.3,4.5-2.74,1.44-5.41,3-8.05,4.64-5.8,3.52-11.63,7-17.46,10.46-3.88,2.32-7.84,4.52-11.83,6.65-1.87,1-3.71,2-5.62,2.89-2.88,1.36-5.75,2.73-8.67,4a54.41,54.41,0,0,1-12.18,3.72,16.85,16.85,0,0,1-1.73.09c1-.93,2.11-1.78,3.19-2.64,2.41-1.81,4.86-3.52,7.38-5.15l4.16-2.7,2.39-1.55c1.63-1.07,3.17-2.31,4.71-3.51a17.19,17.19,0,0,0,1.91-1.81,4.25,4.25,0,0,0,1-1.64,3,3,0,0,0,.08-1.93,4.29,4.29,0,0,0-.91-1.66,3.53,3.53,0,0,0-1.62-1,5.33,5.33,0,0,0-1.54-.14,14.4,14.4,0,0,0-2.18.38c-1.64.42-3.27.9-4.89,1.38-1.41.43-2.79,1-4.17,1.48l-4.5,1.69c-3,1.14-6,2.3-9,3.39l-5.44,2c-1.5.55-3,1-4.53,1.52q-1.32.45-2.64.87a22.45,22.45,0,0,0,2.11-1.77,9.92,9.92,0,0,0,1.89-2.57,5.81,5.81,0,0,0,.71-3.33,5,5,0,0,0-.54-1.92,6.74,6.74,0,0,0-.92-1.27l-.3-.24a6,6,0,0,0-.93-.66,6.6,6.6,0,0,0-1.8-.67c-.16-.05-.32-.08-.48-.12l.85-.67c1-.83,2.09-1.67,3.12-2.51l1.8-1.5,1-.83c.31-.26.62-.53.92-.81a8.93,8.93,0,0,0,.86-1.16,2.55,2.55,0,0,0-.4-3.09,3.51,3.51,0,0,0-2.64-1.22,19.15,19.15,0,0,0-2.91.46,33.44,33.44,0,0,0-4.16,1.19c-1.57.52-3.17,1-4.72,1.58l-9.73,3.64-2.54,1,1.6-2c2.75-3.39,5.46-7.08,6.71-11.32a10,10,0,0,0-.07-6.24,7.42,7.42,0,0,0-1.68-2.59,6.31,6.31,0,0,0-2.88-1.51,18.46,18.46,0,0,0-3-.41c-1.08-.12-2.17-.17-3.26-.19-1.32,0-2.61,0-3.92.15l-2.71.2c-.89.07-1.79.25-2.67.37l-2.8.39c-.67.1-1.33.27-2,.4-1.54.32-3.08.63-4.61,1s-3.14.73-4.69,1.19q-5.19,1.53-10.37,3.13c-2.77.86-5.54,1.77-8.32,2.55a136.09,136.09,0,0,1-16.75,4,39.27,39.27,0,0,1-9.13.12,17.5,17.5,0,0,1-3.13-.79,9.28,9.28,0,0,1-.93-.52l-.3-.3,0-.05s0-.07,0-.11,0-.2.08-.3a32,32,0,0,1,1.72-3.22l1.5-2.4c.33-.53.73-1,1.1-1.51L146,101.6,149,97.89c.34-.43.74-.81,1.11-1.21l2.22-2.4c1-1,2-2,3-3,.58-.56,1.16-1.12,1.75-1.66l.29-.06c.8-.19,1.58-.42,2.37-.65l2.2-.64,5-1.48L176.29,84c6-1.82,12.08-3.65,18.25-4.94l8.32-1.73,3.18-.66c2-.43,4-.89,6.07-1.19a20.48,20.48,0,0,1,4.63-.06c1.29.19,2.55.52,3.82.81a1.47,1.47,0,1,0,.78-2.84,36.88,36.88,0,0,0-5.8-1,24.41,24.41,0,0,0-6.53.71c-2,.41-4,.85-6.06,1.27l-9.42,2c-6.28,1.33-12.42,3.19-18.58,5-2.66.78-5.32,1.56-8,2.3-1.47.41-2.95.83-4.43,1.22q1.93-1.71,3.89-3.4c1.19-1,2.35-2.08,3.53-3.12L172.63,76c.75-.67,1.46-1.39,2.17-2.1a10.5,10.5,0,0,0,.93-1.16,4.59,4.59,0,0,0,.72-1.89,3.09,3.09,0,0,0,0-.8,6.87,6.87,0,0,0,.91-1.36,2,2,0,0,0-.3-2.38,7.41,7.41,0,0,0-1.09-.77,3.43,3.43,0,0,0-1.38-.31h-.16a6.68,6.68,0,0,0-1.2.19ZM140.62,110c-.05.1-.09.2-.14.31a2.92,2.92,0,0,1,.14-.31Zm-.19.15-.06.42h0v.07a2.76,2.76,0,0,1,.07-.49Zm-.31.21.08.2a1.67,1.67,0,0,1-.08-.2Zm.35.66,0,0h0l0,0Zm0,0h0l.11.13a.76.76,0,0,1-.11-.14Zm79.41,15.64,8.53-3.19c.76-.28,1.53-.53,2.31-.79-1.88,1.43-3.76,2.84-5.66,4.22l-.71,0c-.76,0-1.52.15-2.28.23q-2.75.28-5.46.74l3.27-1.25Zm13,5.68a1.22,1.22,0,0,1,.07.17l-.07-.17Zm-.7.51.56.11c-.07.12-.14.24-.22.35a14.64,14.64,0,0,1-1.6,1.55,26.49,26.49,0,0,1-4.85,2.71,50.31,50.31,0,0,1-6.8,2.18c-1.28.32-2.56.69-3.85,1l-1.5.31c.39-.22.78-.46,1.15-.7l4.83-3.11c1.05-.68,2.05-1.4,3.07-2.11s2.18-1.51,3.26-2.28a39.39,39.39,0,0,1,5.95,0Zm.62.13h0a.36.36,0,0,1,0,.09l0-.09Zm.28.07h0s0,.11,0,.16l0-.16Zm-28.81,3.72c1.94-.54,3.93-1,5.89-1.44,1.3-.32,2.62-.6,3.93-.86-.69.46-1.39.93-2.11,1.34a101.54,101.54,0,0,1-9.49,5.2c-.88.35-1.76.67-2.65.93,1.33-1.72,2.7-3.4,4.09-5.08l.34-.09ZM200,141.7c-.07.09-.13.18-.21.27h0l.21-.27Zm181.44,19.6,0,0h0l0,0Z"/><path class="cls-1" d="M168.89,68.07a24.13,24.13,0,0,0-5.4,1.6,44,44,0,0,0-5.31,2.79c-1.3.75-2.56,1.59-3.83,2.38l-2.76,1.73c-4.62,3-9.28,5.87-13.67,9.16-2.3,1.73-4.61,3.46-6.8,5.32-1.1.93-2.19,1.86-3.26,2.82-.55.48-1.09,1-1.61,1.47a3.34,3.34,0,0,0-.61.84,2.7,2.7,0,0,0-.29,1.21,3.25,3.25,0,0,0,.28,1.23,1.9,1.9,0,0,0,.78.9,4,4,0,0,0,2.48.45A20.13,20.13,0,0,0,134,98.76a56,56,0,0,0,5.57-2.26c2.28-1,4.49-2.25,6.71-3.43,2.47-1.32,4.93-2.64,7.41-3.95l4.76-2.51c1.33-.7,2.69-1.34,4-2,1.12-.56,2.24-1.13,3.39-1.64l4.46-2,4-1.58a39.47,39.47,0,0,1,8.41-2.34,22.48,22.48,0,0,1,3-.14,6.09,6.09,0,0,1,.61.17c.15.07.29.15.43.23s.3.31.45.47a9.38,9.38,0,0,1,.56,1,11.32,11.32,0,0,1,.52,2,17,17,0,0,1-.06,3.71,40,40,0,0,1-2.59,8.46c-1.08,2.41-2.16,4.83-3.28,7.23-1,2.06-1.94,4.12-2.81,6.21a48,48,0,0,0-1.88,5.19,28.87,28.87,0,0,0-1.06,5.84,11.41,11.41,0,0,0,.25,2.86,10.66,10.66,0,0,0,1,2.67,10,10,0,0,0,4.35,4.27,15.49,15.49,0,0,0,2.72,1.06,19,19,0,0,0,3,.49,22.49,22.49,0,0,0,6.44-.42,45,45,0,0,0,11.35-4c1.67-.79,3.28-1.68,4.91-2.56,2.64-1.43,5.21-3,7.81-4.46,1.49-.86,3-1.69,4.51-2.48,1.24-.65,2.5-1.27,3.77-1.86a14.89,14.89,0,0,1-.67,2.25,50.6,50.6,0,0,1-5.66,9.32c-1.62,2-3.23,3.94-4.93,5.84l-6,6.68c-1.73,1.94-3.45,3.88-5.14,5.85-1.83,2.15-3.55,4.38-5.21,6.64-.56.77-1.12,1.54-1.66,2.31a8.06,8.06,0,0,0-.68,1.13,4.81,4.81,0,0,0-.55,2.23,3.7,3.7,0,0,0,1,2.54,2.46,2.46,0,0,0,.86.61l.79.33c.38.06.76.11,1.14.14a5.7,5.7,0,0,0,1.82-.27,9.46,9.46,0,0,0,2-.83,26.79,26.79,0,0,0,3.45-2.24c1.1-.79,2.16-1.65,3.21-2.5a3,3,0,0,0,.81-1.37,3.12,3.12,0,0,0-.32-2.39,3.08,3.08,0,0,0-1.86-1.43,3,3,0,0,0-.54-.1c3.1-3.72,6.3-7.35,9.52-11l3.07-3.44c1-1.14,1.95-2.37,2.92-3.55a63.63,63.63,0,0,0,4.85-6.69,44.31,44.31,0,0,0,2.66-4.94,15.53,15.53,0,0,0,1.58-6.19,5.82,5.82,0,0,0-.07-.73,11,11,0,0,0-.27-1.52c-.13-.37-.28-.73-.44-1.09a4.38,4.38,0,0,0-.83-1.19,6.18,6.18,0,0,0-.9-.72,9.25,9.25,0,0,0-1.39-.64,5.2,5.2,0,0,0-3.1,0,21.47,21.47,0,0,0-3.43,1.36l-1.87.82c-1.09.48-2.14,1.06-3.2,1.6s-2.3,1.29-3.45,1.93c-1.77,1-3.5,2.1-5.29,3.07-3.14,1.73-6.26,3.5-9.54,4.93-1.33.54-2.67,1.06-4,1.49a31.28,31.28,0,0,1-4.28,1,19.85,19.85,0,0,1-3.93,0,14.42,14.42,0,0,1-2.21-.59,10.58,10.58,0,0,1-1.09-.62c-.27-.25-.53-.51-.77-.78a9.05,9.05,0,0,1-.59-1,10.79,10.79,0,0,1-.37-1.38,16.92,16.92,0,0,1,.1-3.18,47.6,47.6,0,0,1,3.13-10.14c1-2.48,2.11-4.94,3.15-7.42.82-2,1.62-3.9,2.31-5.91a33.2,33.2,0,0,0,1.38-5.47,18.36,18.36,0,0,0,.09-5.87,10,10,0,0,0-2-4.78,6.18,6.18,0,0,0-1.82-1.52,6.6,6.6,0,0,0-2.92-.76,18,18,0,0,0-2.84.13c-1,.1-2,.28-3,.47a43.65,43.65,0,0,0-5.7,1.65c-1.43.49-2.83,1.1-4.24,1.65-1.16.45-2.29,1-3.42,1.46l-3.53,1.57c-1.12.5-2.2,1.1-3.29,1.65-2.16,1.07-4.3,2.18-6.44,3.32l-6.27,3.37c-3.86,2.09-7.7,4.27-11.74,6-1.1.46-2.22.86-3.35,1.26q-.32.12-.63.21c.75-.69,1.53-1.36,2.29-2,1.17-1,2.37-2,3.57-2.92,1.88-1.42,3.77-2.84,5.7-4.2.91-.63,1.8-1.28,2.72-1.88l4-2.64c1.79-1.17,3.58-2.34,5.39-3.48l4-2.53a47.46,47.46,0,0,1,5.86-3.29,25.26,25.26,0,0,1,5.46-1.57,33.93,33.93,0,0,1,4.73-.1q2.77.09,5.55.24a1.57,1.57,0,1,0,0-3.13c-1.85-.11-3.7-.18-5.55-.25q-.86,0-1.71,0a28.23,28.23,0,0,0-4.2.28Zm-4.42,4.61-.13.06.13-.06ZM183.14,77l-.26,0,.26,0ZM135,94.16l-.38.16.38-.16Z"/><path class="cls-2" d="M103.71,114.94c-.46.07-.91.14-1.36.23a11.47,11.47,0,0,0-2.24.85,12.13,12.13,0,0,0-2.75,1.84,19.57,19.57,0,0,0-2,1.92l-.2.22a22.28,22.28,0,0,0-2.64,2.59,15.45,15.45,0,0,0-2,2.94,11.15,11.15,0,0,0-2.26,3.7,9.82,9.82,0,0,0-.11,6.4,13,13,0,0,0,1.35,2.81,8.86,8.86,0,0,0,2.78,2.9,4.5,4.5,0,0,0,.73.43c.27.27.55.52.84.76a15.49,15.49,0,0,0,2,1.39,11.61,11.61,0,0,0,5.72,4.44,13.59,13.59,0,0,0,3.78.87,17.33,17.33,0,0,0,4.31-.22,13.51,13.51,0,0,0,3.49-1.16,14.08,14.08,0,0,0,2.77-1.65,18.81,18.81,0,0,0,2.78-2.49A23.86,23.86,0,0,0,121,140.4a19.78,19.78,0,0,0,1.49-2.94,29.86,29.86,0,0,0,1.24-3.43l.15-.6a10.69,10.69,0,0,0,.49-3.11l0-.15c0-.12,0-.24,0-.36a6.56,6.56,0,0,0,1.61-3.14,5.73,5.73,0,0,0-.34-3.3,9.61,9.61,0,0,0-.79-1.57,10.2,10.2,0,0,0-1.52-1.82,15.29,15.29,0,0,0-5.72-3.31,23.33,23.33,0,0,0-4.37-1.11,19.87,19.87,0,0,0-6.23-1H107a24.72,24.72,0,0,0-3.32.33Z"/><path class="cls-3" d="M108.6,120.38a10.31,10.31,0,0,0-3,.66,14.75,14.75,0,0,0-6.2,1.27,15.93,15.93,0,0,0-5.23,3.58,21.82,21.82,0,0,0-2.11,2.68,8.86,8.86,0,0,0-.71,1.32,7.09,7.09,0,0,0-.73,2.66,8.89,8.89,0,0,0,.46,3.11,10.91,10.91,0,0,0,2,3.38,5.6,5.6,0,0,0,.94.88,12.33,12.33,0,0,0,1.14.84,9.16,9.16,0,0,0,1.21,3.06,7.24,7.24,0,0,0,4.76,2.89,9.21,9.21,0,0,0,4.6-.27,12.54,12.54,0,0,0,4.12-2.43q.27-.21.54-.45a17.16,17.16,0,0,0,2.72-1.85,14.22,14.22,0,0,0,2.56-2.75,15.27,15.27,0,0,0,1.85-3.18,19.37,19.37,0,0,0,.7-1.84h0a6,6,0,0,0,1-6.72,6.72,6.72,0,0,0-1.41-1.92l-.13-.26a9.91,9.91,0,0,0-1.13-1.53,8.2,8.2,0,0,0-1.67-1.44,9.72,9.72,0,0,0-5.6-1.7l-.65,0Zm-2.13,11.35a2.39,2.39,0,0,1,.22.23l-.17-.06c0-.06,0-.12,0-.17Z"/><path class="cls-4" d="M399.58,76.09a1.73,1.73,0,0,0-.31,1,5.14,5.14,0,0,0,.22,1.09,7.81,7.81,0,0,0,1.19,2.15,18.58,18.58,0,0,0,3.91,3.86,32.67,32.67,0,0,0,10.14,4.92,49,49,0,0,0,7,1.45c1.42.23,2.82.44,4.25.55s2.7.29,4,.29,3,.07,4.47,0l4.48-.18c1.37-.05,2.74-.19,4.1-.29,3-.22,5.92-.58,8.87-.94l4.17-.53c1.23-.17,2.52-.28,3.75-.55a3.35,3.35,0,0,0,1.22-.1,3.65,3.65,0,0,0,1.6-6,4.13,4.13,0,0,0-3.12-1.16,14.46,14.46,0,0,0-3,.42l-4.81.93c-3,.57-6.06,1-9.11,1.5-1.64.21-3.29.43-4.95.59l-3.23.31c-1.09.1-2.19.12-3.28.18-.75,0-1.49.09-2.24.08l-3.89-.06c-.8,0-1.6-.12-2.4-.19-1.14-.1-2.28-.19-3.42-.33a38.48,38.48,0,0,1-9.05-2.33,26.78,26.78,0,0,1-5.2-3c-.25-.2-.49-.4-.72-.61a1.27,1.27,0,0,0,.6-.55,1.39,1.39,0,0,0-.5-1.9c-.55-.28-1.11-.55-1.68-.78a6.29,6.29,0,0,0-1.89-.54h-.07a1.38,1.38,0,0,0-1.15.71Z"/><path class="cls-4" d="M435.89,137l-3.16.21a44.06,44.06,0,0,0-5.12.7,28.24,28.24,0,0,0-6.16,1.86,11,11,0,0,0-1.16.65,3.8,3.8,0,0,0-1.27,1.19,3.86,3.86,0,0,0-.46,1.18,1.72,1.72,0,0,0,0,.9c.09.23.19.45.29.67a3.39,3.39,0,0,0,.71.81c.15.15.36.29.52.44l1,.85c.7.6,1.41,1.19,2.12,1.77a1.56,1.56,0,0,0,2.16,0,1.53,1.53,0,0,0,0-2.16,33.21,33.21,0,0,1-3-2.59,23.29,23.29,0,0,1,5-1.22,55.57,55.57,0,0,1,6.95-.31c1.21,0,2.42,0,3.63.11s2.68.17,4,.33l4.33.49c4.64.66,9.28,1.36,14,1.71,2.52.19,5.05.36,7.57.5,1.13.07,2.25.15,3.38.16h1.9c.53,0,1.06-.07,1.59-.08a3.82,3.82,0,0,0,5.35-4.45l-.39-.91a3.75,3.75,0,0,0-1.37-1.37,6.38,6.38,0,0,0-3.25-1.17,11.7,11.7,0,0,0-1.45,0c-.71,0-1.42.07-2.12.11-1.52.08-3,.12-4.56.16-2.89.08-5.79.12-8.69.07-5.9-.11-11.78-.68-17.68-.67h-1.7c-1,0-2,0-3,.09Zm-13.35,6.4-.17.07.17-.07Zm52.27,1.77.24.1-.25-.1Z"/><path class="cls-4" d="M454,181.19c-1.57.08-3.13.26-4.69.38-2.83.24-5.66.58-8.45,1.1a48.76,48.76,0,0,0-11,3.4,16.82,16.82,0,0,0-2.29,1.23,10.1,10.1,0,0,0-1,.73,4.61,4.61,0,0,0-.84.87,3.28,3.28,0,0,0-.51,2.14,5.93,5.93,0,0,0,.94,2.25,1.51,1.51,0,0,0,2.6-1.52l-.53-1,0-.07v-.09l0,0a3.07,3.07,0,0,1,.26-.25,16.18,16.18,0,0,1,3.21-1.77,48.55,48.55,0,0,1,11.18-2.9c3-.38,6.09-.5,9.15-.62a65.06,65.06,0,0,1,10.44.45c3.28.45,6.55,1,9.78,1.76,1.3.3,2.6.58,3.88,1s2.8.82,4.19,1.26c2.79.89,5.57,1.8,8.38,2.62,1.51.44,3,.86,4.55,1.25s3.2.68,4.81.92a22.42,22.42,0,0,0,2.3.24c.75,0,1.51,0,2.25,0,1,0,2-.19,3-.3,1.54-.18,3.08-.36,4.62-.6a3.58,3.58,0,0,0,2.24-1.73,3.75,3.75,0,0,0-1.35-5.14,4,4,0,0,0-2.89-.38c-1.68.32-3.37.57-5.06.8a25.48,25.48,0,0,1-5.59.09l-2.37-.23c-1.16-.18-2.32-.36-3.48-.58-1.53-.3-3.05-.61-4.58-.94-2.78-.6-5.53-1.29-8.31-1.92-1.27-.29-2.52-.55-3.81-.76-1.52-.24-3-.52-4.56-.7l-5.11-.59a68.62,68.62,0,0,0-7.58-.41q-1.91,0-3.81.09Zm8.64,4.35.3,0-.3,0Zm-33.92,4.64-.18.14.18-.14Zm-.48.14,0,.14a.59.59,0,0,1,0-.14Zm0,.57c0,.05,0,.1,0,.15s0-.1,0-.15Z"/><path class="cls-4" d="M187.29,8.4A2.12,2.12,0,0,0,188.77,11a29.77,29.77,0,0,1,3.88,1,6.26,6.26,0,0,1,1,.64c1.15.91,2.23,1.91,3.31,2.9A1.78,1.78,0,1,0,199.5,13a36.45,36.45,0,0,0-3.84-3.82,9.89,9.89,0,0,0-3.84-1.83c-.63-.17-1.28-.3-1.92-.44a2.31,2.31,0,0,0-.52-.06,2.11,2.11,0,0,0-2.09,1.54Z"/><path class="cls-4" d="M48.69,52c-.66.1-1.31.28-2,.43a24.64,24.64,0,0,0-2.73.86c-1.05.37-2.08.86-3.1,1.31l-2.19,1a.59.59,0,0,0-.46-.05c-.79.21-1.58.42-2.35.7a6.07,6.07,0,0,0-.59.24,1.53,1.53,0,0,0-.56.54,1.58,1.58,0,0,0,.31,1.76,3.94,3.94,0,0,0,.68.54,2.8,2.8,0,0,0,1.3.28,4.55,4.55,0,0,0,1.16-.14l.62-.11,2-.39c.54-.11,1.07-.29,1.59-.45s1.25-.37,1.88-.54a30,30,0,0,1,3.22-.64,20.62,20.62,0,0,1,2.83-.12,8,8,0,0,1,1,.26c.26.14.51.28.75.44a11.29,11.29,0,0,1,1.08,1.11,39.06,39.06,0,0,1,3.74,7.31c-.12-.27-.23-.55-.35-.82.24.56.48,1.12.73,1.68v0a3.16,3.16,0,0,0,4,3,3.05,3.05,0,0,0,1.89-1.46,5.36,5.36,0,0,0,.67-2.3,5.23,5.23,0,0,0-.23-1.71,14.18,14.18,0,0,0-.81-2,27.44,27.44,0,0,0-1.32-2.45c-.59-.94-1.18-1.88-1.8-2.8a17.81,17.81,0,0,0-2.7-3.24,10.16,10.16,0,0,0-3.82-2.2,9.52,9.52,0,0,0-2.19-.34h-.33a13.47,13.47,0,0,0-1.9.21ZM48,57.29l-.18,0,.18,0Z"/><path class="cls-4" d="M40.11,45.79c-.29,1.18-.57,2.37-.8,3.57a21,21,0,0,0-.4,4.75c0,1,.21,2.08.35,3.11a47.35,47.35,0,0,0,1.06,5.68c.24.93.5,1.85.78,2.77A13.59,13.59,0,0,0,43,70a4.91,4.91,0,0,0,1.57,1.54,4,4,0,0,0,2.08.64,7.11,7.11,0,0,0,1.78-.28,6.87,6.87,0,0,0,2.16-1.36,9.22,9.22,0,0,0,1.08-1.26c.46-.57.88-1.16,1.31-1.74s.87-1.19,1.29-1.78a3.08,3.08,0,0,0-2.65-4.63,3,3,0,0,0-2.18.9c-.44.53-.88,1.08-1.33,1.61-.18-.71-.33-1.42-.48-2.13-.33-1.5-.59-3-.83-4.52a26.24,26.24,0,0,1-.22-5.09c.23-1.37.56-2.72.88-4.06a3.89,3.89,0,0,0-2.67-4.72,3.62,3.62,0,0,0-1-.13,3.84,3.84,0,0,0-3.74,2.81Zm6.3,19.73h0Z"/><path class="cls-4" d="M56.32,48.72a2.55,2.55,0,0,0,.61,4.67,42,42,0,0,0,6.13,1c1,.06,1.9.11,2.86.12a13.4,13.4,0,0,0,1.9-.15A5.51,5.51,0,0,0,71,52.64a2,2,0,0,0-2.47-3.21l-.28.17-.07,0a22.72,22.72,0,0,1-3.68-.21l-2.71-.28c-1.19-.19-2.36-.41-3.54-.67a3.25,3.25,0,0,0-.69-.08,2.42,2.42,0,0,0-1.27.34Zm12.4.72-.29.12.29-.12Zm-.7.22-.11,0,.11,0Z"/><path class="cls-4" d="M66.75,40.54a3.39,3.39,0,0,0-1.53,2,3.57,3.57,0,0,0,.34,2.56,20.25,20.25,0,0,0,1,2.09,8.25,8.25,0,0,0,1.24,1.57,3.85,3.85,0,0,0,4.7.78,2.8,2.8,0,0,0,.35-4.6l-.33-.59-.45-.83c-.29-.58-.54-1.18-.81-1.77a3.12,3.12,0,0,0-2-1.53,3.34,3.34,0,0,0-2.56.33Z"/><path class="cls-4" d="M74.05,42.53l-.52.08c-1.65.2-3.3.23-5,.29a1.55,1.55,0,1,0,0,3.09c1,0,2-.07,3-.14a27.43,27.43,0,0,0,3.26-.43,1.51,1.51,0,0,0,1-1.85,1.47,1.47,0,0,0-.69-.89,1.4,1.4,0,0,0-.73-.19,2,2,0,0,0-.42,0Z"/><path class="cls-4" d="M82.13,35.46A4.11,4.11,0,0,0,81,38.21a41.87,41.87,0,0,0-.12,6c.12,1.87.36,3.73.6,5.6a70.18,70.18,0,0,1,.66,8.82c0,.22,0,.43-.07.63a6.58,6.58,0,0,0,0,.88,4.21,4.21,0,0,0,3,4.37,4.13,4.13,0,0,0,3.17-.41,4,4,0,0,0,1.89-2.46c.07-.43.13-.85.18-1.29a12.75,12.75,0,0,1,.51-2A15,15,0,0,1,91.6,57l.43-.42c.27-.18.54-.35.82-.51h.65c.54.14,1.06.31,1.58.5,1,.45,1.88,1,2.84,1.39q.92.39,1.83.75a6.27,6.27,0,0,0,2.82.29,8.08,8.08,0,0,0,2.26-.51,6.52,6.52,0,0,0,1.66-.8c.48-.37,1-.74,1.43-1.12a10.4,10.4,0,0,0,1.42-1.71,12.42,12.42,0,0,0,1.42-2.44,36.27,36.27,0,0,0,1.67-5c.35-1.24.68-2.48,1-3.74a3.82,3.82,0,0,0-5.62-4.31A4,4,0,0,0,106,41.66c-.63,1.79-1.28,3.59-2,5.36A15.52,15.52,0,0,1,103,49c-.35.39-.7.77-1.08,1.13l-.09.06-.18,0a31,31,0,0,1-3.11-1,15.09,15.09,0,0,0-6.63-1,7.77,7.77,0,0,0-2.63.74l-.13.06c-.19-1.45-.39-2.91-.48-4.37-.07-1-.11-2-.11-3.09s.1-2.2.19-3.31a3.73,3.73,0,0,0-1.14-2.75,3.9,3.9,0,0,0-5.49,0Zm20.45,14.16a4.08,4.08,0,0,1-.33.25l.33-.25Zm-1.67.51.54.08a5,5,0,0,1-.54-.08Z"/><path class="cls-4" d="M106.93,34.74a2.87,2.87,0,0,0-1.31,1.72,2.92,2.92,0,0,0,.29,2.2c1.06,2.16,2.15,4.3,3.26,6.44.49.95,1,1.9,1.49,2.84.32.6.62,1.2,1,1.77a5.84,5.84,0,0,0,1.75,1.68,2.82,2.82,0,0,0,1.39.38,3,3,0,0,0,1.45-.21,2.94,2.94,0,0,0,1.59-1.22,2.72,2.72,0,0,0,.26-2.05,2.64,2.64,0,0,0-1.21-1.58,2.13,2.13,0,0,0-.59-.25c-.4-.69-.73-1.43-1.09-2.12-.49-.92-.95-1.85-1.43-2.77-1-1.92-2-3.86-2.94-5.8a2.69,2.69,0,0,0-2.46-1.4,2.9,2.9,0,0,0-1.45.37Z"/><path class="cls-4" d="M128.19,25.69a31.47,31.47,0,0,0-4.32.75c-2.7.67-5.35,1.49-8,2.18a4.46,4.46,0,0,0,2.38,8.6c2.57-.67,5.11-1.43,7.67-2.16,2.35-.67,4.73-1.19,7.05-1.92a3.83,3.83,0,0,0-1-7.53q-.72,0-1.44,0a21.88,21.88,0,0,0-2.28.11Z"/><path class="cls-4" d="M127,30.6c0,.91,0,1.82,0,2.73a18.88,18.88,0,0,0,.79,4.72c.45,1.52.94,3,1.24,4.58a11,11,0,0,1,0,2.07,10.8,10.8,0,0,1-.44,1.6l0,.09c-.61.18-1.22.39-1.8.62a3.56,3.56,0,0,0-2,1.52,3.29,3.29,0,0,0,2.84,4.94,3.2,3.2,0,0,0,.87-.12h0c1.16-.27,2.31-.57,3.47-.81s2.44-.47,3.66-.66c1.63-.21,3.25-.39,4.89-.5.95-.06,1.9-.12,2.86-.21a19.93,19.93,0,0,0,2-.25c.39-.09.75-.17,1.13-.29A6.49,6.49,0,0,0,149,49.08a3.3,3.3,0,0,0-4-5.19c-1.29,0-2.59,0-3.88.14-1.71.14-3.4.39-5.09.65l-1.22.2a15,15,0,0,0-.12-3.53c-.35-2.32-1.15-4.54-1.55-6.84-.1-1.3-.08-2.6-.08-3.91a3,3,0,0,0-6,0Zm1.79,15.59-.09.11.09-.11Z"/><path class="cls-4" d="M134.63,22.92a3.55,3.55,0,0,0-1.07,2.58c.09,1.08.2,2.15.34,3.23a7.21,7.21,0,0,0,.91,2.27,12,12,0,0,0,1.37,1.81,8.69,8.69,0,0,0,1.3,1.2,5.93,5.93,0,0,0,1.13.8,5.41,5.41,0,0,0,1.09.44,3.45,3.45,0,0,0,1.66,0,2.71,2.71,0,0,0,1.68-1.3,2.83,2.83,0,0,0,.13-2.58,43.61,43.61,0,0,0-2.08-3.87c-.05-.15-.09-.3-.13-.45l-.12-1.54a3.84,3.84,0,0,0-1.06-2.58,3.66,3.66,0,0,0-5.15,0Z"/><path class="cls-4" d="M134.88,24.55a3.7,3.7,0,0,0-1.1,2.65,3.62,3.62,0,0,0,1.1,2.65c.89.76,1.79,1.51,2.74,2.19a12.32,12.32,0,0,0,6.1,1.8,21.61,21.61,0,0,0,3.6,0,31.33,31.33,0,0,0,5.24-1,3.25,3.25,0,0,0,.77-5.93,3.44,3.44,0,0,0-2.5-.32L149,26.9a12.1,12.1,0,0,1-2.25.08,29.94,29.94,0,0,1-4.71-1,7.8,7.8,0,0,1-.81-.51l-1.07-.89a3.93,3.93,0,0,0-2.65-1.1,3.76,3.76,0,0,0-2.65,1.1Z"/><path class="cls-4" d="M160.34,18.31a4.74,4.74,0,0,0,0,6.64,15.18,15.18,0,0,0,2.27,1.89,9.77,9.77,0,0,0,4.76,1.27h.19c-.22.66-.48,1.31-.74,2a13.74,13.74,0,0,0-1.14,2.83,3.92,3.92,0,0,0,0,2,11.26,11.26,0,0,0,.62,1.37,3.75,3.75,0,0,0,1,1.14,6,6,0,0,0,2.16,1.25,12.44,12.44,0,0,0,4.17.3,20.56,20.56,0,0,1,3.33.08,7.58,7.58,0,0,1,.94.23l.23.12,0,.13a10.44,10.44,0,0,1,0,1.25q-.12.59-.3,1.17a3.72,3.72,0,0,0-1.49,3,3.79,3.79,0,0,0,2.8,3.67,4.59,4.59,0,0,0,2.49.09,5.12,5.12,0,0,0,2.24-1.22,13.94,13.94,0,0,0,1.26-1.71,10.31,10.31,0,0,0,1.06-2.73,11.89,11.89,0,0,0,.2-5,8.68,8.68,0,0,0-.72-2.25,10.1,10.1,0,0,0-1.49-2.23,8.83,8.83,0,0,0-4-2.27,14.65,14.65,0,0,0-3.24-.47c-.53,0-1.06-.06-1.58-.05a11.58,11.58,0,0,0,1.39-5.45,6.85,6.85,0,0,0-1.94-4.56c-1.34-1.34-3.08-1.63-4.88-1.83-.83-.1-1.67-.16-2.51-.23l-.46-.42A5,5,0,0,0,163.61,17a4.58,4.58,0,0,0-3.27,1.36Zm7.14.46.55.07a5,5,0,0,1-.54-.07ZM171.12,31l.31.13h0l-.28-.13Zm7.21,8.6.24.32-.24-.32Zm0,.13c.06.12.11.25.16.38-.06-.13-.11-.26-.16-.38Zm0,.43a1.37,1.37,0,0,1,0,.19,1.37,1.37,0,0,0,0-.19Z"/><path class="cls-4" d="M205,18.9a18.8,18.8,0,0,0-2.06.63c-3.32,1.2-6,3.67-8.4,6.15a2.41,2.41,0,0,0,3.41,3.41c1.08-1.1,2.19-2.16,3.37-3.15a17.36,17.36,0,0,1,2.75-1.72,11.94,11.94,0,0,1,2.17-.63c.21,0,.41,0,.62,0l.28.07c.23.12.45.26.67.4s.38.38.56.58a12.47,12.47,0,0,1,1,1.82,20,20,0,0,1,1,4,37.34,37.34,0,0,1,.21,7.47,14.19,14.19,0,0,1-.82,2.79c-.17.4-.35.8-.55,1.18a2.82,2.82,0,0,0-.56,1.07,2.88,2.88,0,0,0,4.23,3.25,9,9,0,0,0,3.51-4.61,12.81,12.81,0,0,0,.65-4.39,30,30,0,0,0-.34-3.55,50.5,50.5,0,0,0-1-5.86,17.51,17.51,0,0,0-2.16-5.05,8.93,8.93,0,0,0-3.87-3.46,9.08,9.08,0,0,0-1-.39,7.27,7.27,0,0,0-1.61-.23l-.31,0a8.34,8.34,0,0,0-1.8.28Z"/><path class="cls-4" d="M233.75.23a1.87,1.87,0,0,0-.77,1l-.81,1.93c.06-.13.11-.27.17-.4-.32.74-.63,1.47-.92,2.22-.22.55-.38,1.14-.55,1.72a12.71,12.71,0,0,0-.42,4.21,29.68,29.68,0,0,0,.64,4.16c.3,1.41.66,2.78,1,4.17A2.36,2.36,0,1,0,236.69,18q-.62-2.33-1.32-4.65a34,34,0,0,1-1-3.86,13.64,13.64,0,0,1,0-2.12c.05-.29.1-.58.17-.87A14.9,14.9,0,0,1,235,5c.34-1,.8-1.95,1.21-2.91a1.65,1.65,0,0,0-.17-1.3,1.74,1.74,0,0,0-1-.77,1.61,1.61,0,0,0-.44-.06,1.73,1.73,0,0,0-.86.23Z"/><path class="cls-4" d="M236,30.14l-.89,1.14a5.77,5.77,0,0,0-.77,2.87,6.73,6.73,0,0,0,.22,3.45l.57,1.34a5.64,5.64,0,0,0,6.36,2.59,5.73,5.73,0,0,0,4.07-6.45c0-.31.08-.62.12-.93a5.41,5.41,0,0,0-1.66-4,5.67,5.67,0,0,0-8,0Z"/><path class="cls-4" d="M6,62.14a2.41,2.41,0,0,0-.85,3.27l1.14,1.9A18.21,18.21,0,0,0,9.8,71.2c1,.89,2.09,1.7,3.18,2.49,1.87,1.35,3.8,2.6,5.66,4s4,2.93,6,4.33,3.93,2.56,5.93,3.79q3.56,2.22,7.13,4.4a2,2,0,1,0,2.05-3.5q-3.24-2.11-6.49-4.2c-2-1.28-4-2.53-5.89-3.91-2.07-1.52-4.12-3.07-6.17-4.62-1.77-1.33-3.62-2.56-5.39-3.89l-1.06-.79a30.79,30.79,0,0,1-3.89-3.68c-.59-.82-1.08-1.71-1.59-2.58a2.44,2.44,0,0,0-2.08-1.18A2.41,2.41,0,0,0,6,62.14Z"/><path class="cls-4" d="M282.81,8.92A13.58,13.58,0,0,0,280,12.5c-.64,1.07-1.27,2.14-1.84,3.25-1.26,2.51-2.47,5.05-3.68,7.58-2.23,4.65-4.34,9.35-6.39,14.09-.72,1.64-1.42,3.29-2.07,5-.44,1.12-.86,2.24-1.22,3.39a14.74,14.74,0,0,0-.63,3.09,7.11,7.11,0,0,0,.1,1.84,7.38,7.38,0,0,0,.45,1.45,2.52,2.52,0,0,0,1.08,1.4,2.34,2.34,0,0,0,3.19-.84,2.23,2.23,0,0,0,.23-1.8,10.85,10.85,0,0,1-.39-1.18c0-.24,0-.47,0-.7a35.92,35.92,0,0,1,2.3-6.81c2.15-4.86,4.33-9.71,6.64-14.49,1.16-2.39,2.35-4.76,3.53-7.14a56.51,56.51,0,0,1,3.77-6.47c.1-.15.21-.29.32-.43a12.55,12.55,0,0,1,1-1.15,2.6,2.6,0,0,0,0-3.62,2.56,2.56,0,0,0-1.82-.75,2.66,2.66,0,0,0-1.81.75Z"/></g></g></svg>